<svg width="8" height="14" viewBox="0 0 8 14" fill="none" xmlns="http://www.w3.org/2000/svg">
<path d="M7.64471 13.6317C7.75733 13.5157 7.84669 13.3779 7.90765 13.2262C7.96862 13.0745 8 12.9119 8 12.7477C8 12.5835 7.96862 12.4209 7.90765 12.2692C7.84669 12.1175 7.75733 11.9798 7.64471 11.8638L2.93089 6.99891L7.64471 2.13404C7.87187 1.89961 7.99949 1.58164 7.99949 1.2501C7.99949 0.91855 7.87187 0.60058 7.64471 0.366142C7.41755 0.131704 7.10946 -7.7854e-08 6.7882 -1.05939e-07C6.46695 -1.34024e-07 6.15886 0.131704 5.9317 0.366142L0.355291 6.12123C0.242665 6.23722 0.153311 6.375 0.0923459 6.52668C0.0313803 6.67836 6.25863e-07 6.84096 6.11507e-07 7.00518C5.97151e-07 7.16939 0.0313803 7.33199 0.0923458 7.48367C0.153311 7.63535 0.242664 7.77313 0.35529 7.88913L5.9317 13.6442C6.39336 14.1207 7.1709 14.1207 7.64471 13.6317Z" fill="black"/>
</svg>
