<svg width="17" height="11" viewBox="0 0 17 11" fill="none" xmlns="http://www.w3.org/2000/svg">
<path fill-rule="evenodd" clip-rule="evenodd" d="M16.4455 4.96017C16.5393 5.05394 16.592 5.18111 16.592 5.31372C16.592 5.44633 16.5393 5.57351 16.4455 5.66727L12.2029 9.90991C12.1091 10.0037 11.982 10.0564 11.8493 10.0564C11.7167 10.0564 11.5896 10.0037 11.4958 9.90991C11.402 9.81615 11.3493 9.68897 11.3493 9.55636C11.3493 9.42375 11.402 9.29658 11.4958 9.20281L14.885 5.81365L0.535637 5.81435C0.469893 5.81435 0.404793 5.8014 0.344053 5.77624C0.283314 5.75108 0.228125 5.71421 0.181637 5.66772C0.135149 5.62123 0.0982725 5.56604 0.0731134 5.5053C0.0479544 5.44456 0.0350049 5.37946 0.0350049 5.31372C0.0350049 5.24798 0.0479544 5.18288 0.0731134 5.12214C0.0982725 5.0614 0.135149 5.00621 0.181637 4.95972C0.228125 4.91323 0.283314 4.87636 0.344053 4.8512C0.404793 4.82604 0.469893 4.81309 0.535637 4.81309L14.885 4.8138L11.4958 1.42463C11.402 1.33087 11.3493 1.20369 11.3493 1.07108C11.3493 0.938473 11.402 0.811295 11.4958 0.717527C11.5896 0.623758 11.7167 0.57108 11.8493 0.57108C11.982 0.57108 12.1091 0.623758 12.2029 0.717527L16.4455 4.96017Z" fill="#FAB08C"/>
</svg>
