<svg width="56" height="56" viewBox="0 0 56 56" fill="none" xmlns="http://www.w3.org/2000/svg">
<rect width="56" height="56" fill="#84B898"/>
<path d="M21.4702 45C14.118 40.9585 12.1823 37.1331 13.289 31.9085C14.106 28.0506 16.7812 24.9118 17.0377 21.0613C18.1805 23.0897 18.658 24.5523 18.7857 26.6719C22.4203 22.3286 24.8221 16.3159 24.9644 10C24.9644 10 34.4312 15.4253 35.0524 23.6203C35.8674 21.9311 36.2776 19.2484 35.4626 17.5097C37.9075 19.2485 52.2176 34.6842 33.5243 45C37.0388 38.3256 34.431 29.3197 28.3288 25.1603C28.7364 26.9488 28.0219 33.6193 25.3222 36.5503C26.0703 31.6528 24.6105 29.5819 24.6105 29.5819C24.6105 29.5819 24.1095 32.3251 22.1657 35.0963C20.3906 37.6268 19.1606 40.3127 21.4702 45Z" fill="#E38D28"/>
</svg>
