<svg width="426" height="268" viewBox="0 0 426 268" fill="none" xmlns="http://www.w3.org/2000/svg">
<g clip-path="url(#clip0_9_252)">
<path d="M182.388 246.07L232.684 245.671L231.146 52.5747L180.85 52.9735L182.388 246.07ZM184.894 74.6755C184.948 74.7008 185.006 74.7139 185.065 74.7139C185.124 74.7139 185.183 74.7008 185.236 74.6755C188.198 72.2831 203.464 60.72 194.578 70.4603C191.072 74.1992 187.854 78.1979 184.951 82.422L184.894 74.6755ZM184.894 85.7259C184.993 85.7682 185.1 85.7898 185.207 85.7898C185.315 85.7898 185.422 85.7682 185.521 85.7259C190.192 82.2513 194.805 78.6628 199.533 75.2451C201.983 73.4793 204.489 71.8843 207.052 70.3464C208.34 69.5843 209.543 68.6869 210.64 67.6693L208.59 69.7768C200.672 78.093 191.502 85.1562 186.147 95.4091C186.021 95.6814 185.992 95.9889 186.065 96.2801C186.138 96.5714 186.309 96.8287 186.55 97.0088C186.79 97.189 187.085 97.2812 187.385 97.2699C187.685 97.2587 187.972 97.1448 188.198 96.9471C194.806 91.5359 201.584 86.3524 208.305 81.055L206.596 82.8208C198.052 91.5358 189.223 99.9091 185.122 111.7L184.894 85.7259ZM184.894 115.63C185.065 115.764 185.276 115.837 185.492 115.837C185.709 115.837 185.92 115.764 186.09 115.63C191.312 109.734 196.906 104.179 202.837 98.9976C194.769 107.644 188.684 117.947 185.008 129.187L184.894 115.63ZM184.894 131.636C185.006 131.75 185.139 131.84 185.285 131.902C185.432 131.963 185.589 131.995 185.749 131.995C185.908 131.995 186.065 131.963 186.212 131.902C186.359 131.84 186.492 131.75 186.603 131.636C192.299 125.2 197.995 118.478 204.147 111.985C205.856 110.105 207.679 108.339 209.444 106.573C199.875 117.966 189.337 128.845 185.122 143.427L184.894 131.636ZM184.894 146.731C185.107 146.939 185.394 147.056 185.692 147.056C185.99 147.056 186.276 146.939 186.489 146.731C192.926 139.269 199.305 131.75 206.084 124.63C210.519 120.095 215.279 115.887 220.324 112.042L220.039 112.611C218.114 115.412 216.021 118.094 213.773 120.643C203.35 133.117 190.989 143.427 185.008 158.806L184.894 146.731ZM227.672 169.515C221.182 174.421 215.208 179.975 209.843 186.091C207.052 189.166 204.489 192.47 201.869 195.717C201.014 196.799 197.027 205.229 198.109 201.071C202.096 185.236 218.615 173.73 227.729 160.515L227.672 169.515ZM226.76 56.2201L227.558 158.237C227.277 158.066 226.942 158.012 226.622 158.087C226.303 158.162 226.025 158.359 225.849 158.635C215.767 173.844 196.685 186.717 194.464 206.084C194.464 207.508 196.229 207.679 196.856 206.767C202.256 199.125 208.095 191.803 214.343 184.837C217.077 181.818 220.039 179.141 223.115 176.293C231.089 169.059 218.729 182.502 218.957 182.274C209.33 194.521 197.597 204.204 191.046 218.672C190.92 218.944 190.89 219.252 190.964 219.543C191.037 219.834 191.208 220.091 191.448 220.272C191.689 220.452 191.983 220.544 192.283 220.533C192.583 220.521 192.871 220.408 193.097 220.21C195.489 217.932 197.767 215.539 200.103 213.261C196.425 217.952 193.521 223.202 191.502 228.811C191.103 229.836 192.47 230.805 193.381 230.235C204.033 223.457 210.982 212.634 221.406 205.514C217.546 209.64 214.111 214.143 211.153 218.957C207.877 223.19 205.3 227.921 203.52 232.969C203.008 234.279 204.774 235.077 205.628 234.279C208.476 231.545 211.324 228.583 213.83 225.963C212.314 228.131 210.907 230.375 209.615 232.684C209.454 232.959 209.399 233.282 209.459 233.594C209.519 233.906 209.69 234.186 209.941 234.381C210.192 234.576 210.505 234.673 210.823 234.655C211.14 234.636 211.44 234.503 211.666 234.279C215.445 230.795 219.399 227.506 223.514 224.425C221.919 225.621 217.305 232.684 214.628 235.817C213.773 236.899 214.628 238.608 216.166 237.811C219.128 236.045 220.495 233.596 219.128 237.811C218.558 239.406 221.064 240.032 221.577 238.494C222.261 236.964 222.666 235.325 222.773 233.653C222.839 233.414 222.832 233.162 222.754 232.927C222.677 232.692 222.531 232.486 222.336 232.333C222.141 232.181 221.906 232.09 221.659 232.071C221.413 232.053 221.166 232.107 220.95 232.229L221.292 231.83C223.777 228.837 225.846 225.522 227.444 221.976C227.957 220.837 226.874 219.526 225.735 220.21C220.889 222.676 216.723 226.295 213.602 230.748C217.134 224.197 222.716 218.957 226.248 212.349C226.931 211.153 225.222 209.729 224.254 210.811L215.71 220.267L210.014 226.533C206.217 230.33 205.875 230.501 208.989 227.045C213.546 217.818 222.033 210.413 228.184 202.154C228.302 201.929 228.353 201.676 228.329 201.424C228.306 201.172 228.211 200.932 228.054 200.733C227.897 200.534 227.686 200.385 227.447 200.303C227.207 200.222 226.949 200.212 226.703 200.274C215.311 204.831 208.419 213.887 199.932 222.147C190.021 231.83 197.084 222.887 198.793 220.039C201.514 215.952 204.623 212.137 208.077 208.647C213.373 203.204 218.284 197.399 222.773 191.274C223.627 190.021 221.748 188.654 220.78 189.679C214.343 196.173 207.963 202.723 201.527 209.16C199.177 211.318 197.161 213.813 195.546 216.565C197.777 212.114 200.531 207.946 203.748 204.147C211.894 193.78 221.52 185.179 228.355 173.901L228.925 241.684L186.318 242.083L185.806 161.768C186.029 161.904 186.285 161.976 186.546 161.976C186.807 161.976 187.064 161.904 187.287 161.768C194.153 155.795 200.586 149.342 206.539 142.459C209.622 139.158 212.893 136.039 216.336 133.117C216.359 133.306 216.359 133.497 216.336 133.687L211.609 139.383C200.957 151.8 190.533 163.99 187.116 180.394C187.116 181.534 188.426 182.73 189.28 181.648C195.432 173.958 200.957 165.756 207.28 158.18C210.918 153.604 215.196 149.575 219.982 146.218C219.982 146.218 216.052 152.313 214.799 154.136C204.603 168.604 190.533 179.255 187.116 197.597C187.054 197.869 187.081 198.154 187.193 198.41C187.305 198.666 187.496 198.879 187.737 199.019C187.979 199.159 188.259 199.218 188.537 199.187C188.814 199.157 189.075 199.039 189.28 198.85C198.109 189.793 206.368 180.167 214.457 170.369C215.539 169.173 213.773 167.293 212.691 168.547C206.482 175.724 200.331 182.901 194.008 189.907C191.217 193.04 189.508 197.141 191.16 191.331C192.626 187.133 194.678 183.164 197.255 179.54C205.457 166.895 217.362 157.61 223.684 143.712C223.812 143.465 223.858 143.184 223.816 142.909C223.773 142.634 223.644 142.38 223.448 142.183C223.251 141.986 222.997 141.857 222.722 141.815C222.447 141.772 222.166 141.818 221.919 141.946C215.481 145.607 209.704 150.325 204.83 155.901C200.103 161.142 191.16 170.142 189.736 176.977C193.894 156.813 212.52 142.345 224.311 126.282C225.052 125.257 223.571 123.833 222.545 124.516C215.871 129.02 209.753 134.297 204.318 140.237C200.729 144.053 197.255 147.984 193.666 151.629C189.052 156.414 187.173 158.977 191.103 151.629C199.818 134.94 217.02 124.288 226.077 107.656C226.646 106.573 225.45 105.092 224.311 105.89C217.279 110.796 210.702 116.324 204.66 122.409C199.704 127.364 189.679 135.851 188.084 142.288C192.527 124.288 210.47 111.073 220.666 96.2635C221.577 94.9534 219.697 93.8141 218.672 94.6686C212.97 99.317 207.62 104.381 202.666 109.82C198.622 114.092 189.565 121.611 188.141 126.908C192.356 110.618 207.109 97.5736 218.102 85.6118C218.337 85.3669 218.467 85.0407 218.466 84.7018C218.465 84.3629 218.332 84.0377 218.096 83.7944C217.86 83.5511 217.539 83.4087 217.2 83.3971C216.862 83.3855 216.532 83.5056 216.28 83.7322C210.584 88.403 205.172 93.0168 199.704 97.8015C196.457 100.593 193.381 103.498 190.362 106.687C189.112 108.059 188.023 109.568 187.116 111.187C187.116 110.789 188.198 109.251 190.021 105.491C196.856 92.1055 210.698 82.7069 219.868 71.0299C220.043 70.7777 220.123 70.4721 220.095 70.1667C220.068 69.8612 219.934 69.5751 219.717 69.3582C219.5 69.1413 219.214 69.0075 218.909 68.9799C218.603 68.9523 218.298 69.0326 218.045 69.2071C209.672 76.0424 194.692 84.1879 189.964 92.9598C195.66 82.2512 207.052 74.7323 215.084 65.6756C215.281 65.4495 215.395 65.1625 215.406 64.8624C215.418 64.5623 215.325 64.2676 215.145 64.0273C214.965 63.7871 214.708 63.6161 214.417 63.5429C214.125 63.4696 213.818 63.4987 213.545 63.6251C204.23 68.1236 195.49 73.727 187.514 80.3145C194.017 74.9407 199.765 68.7137 204.603 61.8023C205.286 60.8909 204.147 59.5809 203.122 59.9227C199.473 61.1156 196.004 62.8019 192.812 64.9351C191.616 65.7325 190.533 66.5301 189.394 67.3845C180.508 74.4476 192.812 61.6883 193.609 60.8339C194.407 59.9795 193.267 57.929 192.014 58.8404L189.622 60.6062C189.436 60.7764 189.296 60.9913 189.217 61.2306C189.137 61.4698 189.12 61.7254 189.166 61.9732L186.546 65.5047C185.885 66.3963 185.313 67.3502 184.837 68.3528V56.3341L226.76 56.2201Z" fill="#84B898"/>
<path d="M404.307 267.715C410.784 264.035 417.524 260.837 424.471 258.146C424.802 258.037 425.085 257.815 425.268 257.519C425.457 257.207 425.574 256.857 425.61 256.494V256.095C425.576 255.75 425.458 255.418 425.268 255.127L424.983 254.842C424.809 254.675 424.592 254.557 424.357 254.5C424.357 254.5 424.357 254.5 423.844 254.5C415.642 253.589 409.661 246.241 401.744 244.133C401.245 243.998 400.713 244.065 400.264 244.322C399.816 244.578 399.487 245.002 399.351 245.5C399.215 245.999 399.283 246.531 399.539 246.98C399.796 247.428 400.22 247.757 400.718 247.893C405.525 249.598 410.084 251.935 414.275 254.842C344.783 256.38 275.12 254.842 205.571 254.842C137.617 254.842 69.6627 254.159 1.70862 254.842C1.19498 254.842 0.702462 255.046 0.339268 255.409C-0.0239272 255.773 -0.228027 256.265 -0.228027 256.779C-0.228027 257.292 -0.0239272 257.785 0.339268 258.148C0.702462 258.511 1.19498 258.715 1.70862 258.715C68.4665 258.203 135.168 258.715 201.869 258.715C272.614 258.715 343.53 260.196 414.218 258.715C410.174 260.595 406.186 262.532 402.199 264.753C401.975 265.08 401.857 265.468 401.861 265.865C401.865 266.261 401.99 266.646 402.22 266.969C402.449 267.292 402.773 267.537 403.146 267.67C403.519 267.804 403.924 267.819 404.307 267.715Z" fill="#FFA039"/>
<path d="M26.316 244.817V246.754L75.7009 246.355L75.3023 171.281L27.797 171.68H25.8604L26.2021 221.235C26.316 234.45 26.316 244.817 26.316 244.817ZM71.372 174.983L71.8846 242.539L30.1893 242.823C30.1893 239.292 30.1893 231.033 30.1893 221.178L29.8476 175.325L71.372 174.983Z" fill="#101418"/>
<path d="M257.064 243.621V245.33L306.448 244.931L305.879 169.629L258.374 170.028H256.437L256.779 219.527C256.893 233.254 257.064 243.621 257.064 243.621ZM260.424 186.66C260.61 186.698 260.803 186.687 260.983 186.627C261.163 186.567 261.324 186.46 261.45 186.319C262.931 184.894 270.449 177.433 269.766 178.458C266.633 182.958 263.386 187.173 260.652 192.015C259.912 193.325 261.564 194.407 262.703 193.552C265.722 191.16 268.684 188.654 271.646 186.147C267.486 192.112 263.773 198.375 260.538 204.888L260.424 186.66ZM260.424 208.875C260.583 208.884 260.742 208.858 260.89 208.799C261.037 208.74 261.17 208.649 261.279 208.533C265.046 204.945 268.603 201.141 271.93 197.141C267.411 203.428 263.591 210.189 260.538 217.305L260.424 208.875ZM268.171 174.129H301.892L302.404 241.627L260.709 241.969C260.709 238.437 260.709 230.235 260.709 220.381C260.921 220.518 261.168 220.591 261.421 220.591C261.674 220.591 261.921 220.518 262.133 220.381C265.437 216.906 268.741 213.432 271.987 209.9C268.311 215.286 264.945 220.878 261.905 226.647C261.744 226.921 261.689 227.244 261.749 227.556C261.809 227.868 261.98 228.148 262.231 228.343C262.482 228.539 262.795 228.636 263.113 228.617C263.43 228.598 263.73 228.465 263.956 228.241C269.903 223.08 275.34 217.357 280.19 211.153C275.975 217.362 271.76 223.571 267.943 230.007C267.815 230.274 267.781 230.577 267.847 230.866C267.912 231.155 268.074 231.413 268.306 231.598C268.537 231.783 268.824 231.884 269.12 231.885C269.417 231.886 269.704 231.786 269.937 231.602C274.152 227.558 278.025 223.229 281.841 218.843C278.224 224.142 274.969 229.68 272.101 235.419C271.94 235.693 271.885 236.016 271.945 236.328C272.005 236.64 272.176 236.92 272.427 237.115C272.678 237.31 272.991 237.408 273.309 237.389C273.626 237.37 273.926 237.237 274.152 237.013C277.854 233.425 281.386 229.723 284.803 225.963C282.499 229.151 280.461 232.523 278.709 236.045C278.139 237.298 279.677 238.665 280.759 237.583C284.462 233.881 287.765 229.95 291.354 226.191C289.303 229.666 287.253 233.14 285.316 236.672C285.155 236.946 285.1 237.269 285.16 237.581C285.22 237.894 285.391 238.173 285.642 238.368C285.893 238.563 286.206 238.661 286.524 238.642C286.841 238.623 287.14 238.49 287.367 238.267C290.784 235.419 293.063 230.121 290.613 237.013C290.101 238.324 291.867 238.95 292.721 238.267C293.575 237.583 292.721 236.615 293.006 235.817C292.436 237.355 294.886 238.039 295.455 236.501V235.988C295.911 234.849 294.487 234.108 293.575 234.564C290.784 235.988 294.373 233.596 295.284 231.09C295.797 229.722 294.031 229.096 293.177 229.836L291.069 231.602C293.291 227.786 295.569 223.969 297.563 220.21C297.767 219.946 297.857 219.611 297.815 219.28C297.772 218.949 297.599 218.648 297.335 218.444C297.07 218.24 296.736 218.15 296.405 218.193C296.074 218.235 295.773 218.408 295.569 218.672C292.665 221.111 289.96 223.777 287.481 226.647C290.839 222.159 293.812 217.396 296.367 212.406C296.936 211.153 295.341 209.615 294.373 210.869C289.417 217.077 284.177 222.944 278.766 228.64C284.974 218.103 292.55 208.362 298.189 197.426C298.296 197.138 298.298 196.821 298.196 196.532C298.093 196.242 297.891 195.998 297.626 195.842C297.362 195.686 297.051 195.627 296.747 195.678C296.444 195.728 296.168 195.883 295.968 196.116C290.186 204.784 283.79 213.027 276.829 220.78C283.721 210.299 291.012 200.046 296.993 188.996C297.1 188.707 297.102 188.391 296.999 188.101C296.896 187.812 296.695 187.568 296.43 187.411C296.166 187.255 295.854 187.197 295.551 187.247C295.248 187.297 294.972 187.453 294.772 187.686C286.717 199.259 277.847 210.242 268.228 220.552C275.519 208.191 284.405 196.856 292.151 184.78C293.063 183.356 290.841 182.103 289.987 183.47C281.967 195.001 272.931 205.79 262.987 215.71C267.049 210.367 270.741 204.753 274.038 198.907C277.911 193.211 282.183 187.97 286.17 182.388C287.082 181.135 285.202 179.939 284.177 180.85C277.539 187.22 271.3 193.992 265.494 201.128C269.658 193.748 274.36 186.685 279.563 179.996C280.531 178.8 278.595 177.547 277.569 178.458C274.152 181.363 270.62 184.154 267.146 187.002C269.424 183.641 271.816 180.338 274.152 176.977C274.949 175.838 273.468 174.698 272.443 175.211C269.894 176.513 267.489 178.079 265.266 179.882C266.177 178.287 267.146 176.749 268.171 175.154C268.399 174.357 268.342 174.186 268.342 174.015L268.171 174.129ZM265.38 174.129C263.5 177.034 261.791 179.825 260.196 182.958V174.129H265.38Z" fill="#101418"/>
<path d="M105.149 168.376C105.149 179.483 105.149 191.16 105.149 201.641C105.149 225.45 105.548 244.019 105.548 244.019V245.33L153.68 244.988L152.825 114.32H130.497H106.004H104.75V115.573C104.75 115.573 104.75 125.883 104.75 140.579C104.978 148.838 105.092 158.408 105.149 168.376ZM108.054 212.805C108.355 212.948 108.697 212.98 109.02 212.897C109.342 212.814 109.625 212.62 109.82 212.349C114.855 205.248 120.314 198.458 126.168 192.015C117.863 201.519 111.721 212.713 108.168 224.824C108.111 221.178 108.054 217.134 108.054 212.805ZM130.497 116.94H150.319L151.344 242.254L108.339 242.595C108.339 240.431 108.339 235.532 108.339 228.925C108.625 229.049 108.945 229.071 109.245 228.988C109.546 228.905 109.809 228.722 109.991 228.469C113.921 223.343 118.022 218.501 122.294 213.66C117.65 220.401 113.591 227.529 110.162 234.963C109.592 236.216 111.13 237.697 112.155 236.558C120.984 226.931 128.617 216.394 137.503 206.881C130.036 215.335 123.487 224.557 117.965 234.393C117.761 234.657 117.671 234.992 117.714 235.323C117.756 235.654 117.929 235.955 118.193 236.159C118.458 236.363 118.792 236.453 119.123 236.411C119.454 236.368 119.755 236.196 119.959 235.931C125.701 230.863 131.158 225.481 136.307 219.811C133.402 223.969 130.611 228.185 128.161 232.571C128.033 232.838 127.999 233.14 128.065 233.429C128.131 233.718 128.292 233.976 128.524 234.161C128.755 234.346 129.042 234.447 129.339 234.448C129.635 234.449 129.923 234.349 130.155 234.165C133.686 230.748 136.876 227.102 140.294 223.571C142.8 219.982 142.8 220.324 140.294 224.596C137.788 228.868 136.136 231.431 134.256 234.963C134.128 235.23 134.094 235.532 134.16 235.821C134.225 236.11 134.387 236.368 134.619 236.553C134.85 236.738 135.137 236.839 135.433 236.84C135.73 236.841 136.017 236.741 136.25 236.558C138.357 234.393 140.465 232.172 142.515 229.95C150.319 221.634 142.515 230.634 141.433 231.944C140.351 233.254 142.629 234.564 143.655 233.254C146.258 230.192 148.197 226.623 149.351 222.773C149.412 222.501 149.385 222.216 149.273 221.96C149.161 221.704 148.971 221.491 148.729 221.351C148.487 221.211 148.207 221.152 147.93 221.182C147.652 221.213 147.392 221.331 147.186 221.52C145.306 223.4 143.484 225.393 141.49 227.216C143.085 224.482 144.68 221.52 146.047 218.729C146.503 217.704 145.42 216.166 144.281 217.02C141.518 218.999 138.961 221.251 136.648 223.741C136.799 223.463 136.97 223.197 137.161 222.944C140.237 218.273 143.541 213.773 146.674 209.16C147.471 207.906 145.648 206.596 144.623 207.565C137.213 214.108 130.337 221.231 124.06 228.868C130.212 218.9 138.756 210.584 144.224 200.388C144.353 200.121 144.387 199.818 144.321 199.529C144.255 199.24 144.093 198.982 143.862 198.797C143.631 198.612 143.343 198.511 143.047 198.51C142.751 198.509 142.463 198.609 142.231 198.793C132.035 208.077 119.446 221.292 113.75 232.969C121.897 216.887 132.441 202.136 145.022 189.223C146.104 188.027 144.338 186.204 143.199 187.401C136.022 194.919 128.845 202.324 121.896 210.185C118.934 213.432 116.2 216.792 113.295 220.153C110.39 223.514 109.934 227.444 111.301 222.432C116.427 203.578 133.117 188.255 145.022 173.217C146.047 171.907 144.452 170.198 143.199 171.395C135.521 178.408 128.202 185.803 121.269 193.552C118.364 196.799 115.573 200.274 113.01 203.748C108.396 209.444 110.503 207.052 111.643 202.894C116.712 184.666 131.921 169.629 142.231 154.306C143.085 152.996 141.262 151.914 140.18 152.769C129.496 162.137 120.381 173.156 113.181 185.407C116.655 180.053 120.529 169.971 124.573 163.078C128.617 156.186 133.8 149.123 138.528 142.288C139.44 141.035 137.56 139.952 136.535 140.75C129.471 146.446 115.003 156.015 112.041 164.958C115.003 151.117 127.763 138.87 134.826 127.307C135.509 126.225 134.142 124.801 133.06 125.541C126.339 130.155 120.187 135.566 113.295 139.952C111.871 140.864 113.295 143.028 114.548 142.174C118.193 139.839 121.554 137.389 124.972 134.769C125.745 134.616 126.507 134.407 127.25 134.142L124.003 138.642C116.367 147.516 111.044 158.142 108.51 169.572C108.473 169.857 108.532 170.146 108.676 170.395C108.82 170.644 109.042 170.838 109.308 170.948C109.573 171.059 109.868 171.078 110.145 171.005C110.423 170.931 110.669 170.768 110.845 170.54C115.172 164.086 120.238 158.16 125.94 152.882C127.535 151.344 129.244 149.978 130.952 148.553L129.244 151.003C120.713 162.267 114.481 175.099 110.902 188.768C110.774 189.077 110.774 189.425 110.902 189.735C111.03 190.045 111.276 190.291 111.586 190.419C111.895 190.548 112.243 190.548 112.553 190.42C112.863 190.292 113.109 190.046 113.238 189.736C118.661 181.078 124.615 172.765 131.066 164.844C131.522 164.275 132.035 163.819 132.49 163.306L129.984 166.724C120.813 179.198 110.503 192.584 107.826 208.191C107.826 206.084 107.826 203.976 107.826 201.755C107.826 191.274 107.826 179.654 107.826 168.547C107.826 158.578 107.826 149.009 107.826 141.035C107.826 129.358 107.826 120.529 107.826 117.282L130.497 116.94Z" fill="#101418"/>
<path d="M325.416 201.641C325.416 225.45 325.815 244.02 325.815 244.02V245.956L375.257 245.558L374.175 113.58L324.79 113.978V115.858C324.79 115.858 324.79 126.168 324.79 140.864L325.416 201.641ZM329.062 175.154C329.221 175.168 329.381 175.144 329.529 175.085C329.678 175.025 329.81 174.932 329.916 174.812C335.612 168.831 340.738 162.737 345.922 156.471L344.042 160.06C339.884 167.806 334.017 174.414 329.119 181.762L329.062 175.154ZM371.327 241.741L329.631 242.083C329.631 236.729 329.631 220.894 329.289 201.584V187.571C336.296 180.907 342.561 173.502 348.884 166.211L344.27 172.591C338.884 180.27 334.049 188.322 329.802 196.685C329.176 197.881 330.827 199.419 331.796 198.223C335.327 193.894 339.03 189.736 342.732 185.578C336.272 193.171 332.138 202.466 330.827 212.349C330.827 213.716 332.536 213.887 333.22 212.976C338.916 205.059 344.612 196.856 350.878 189.223C354.805 184.497 359.367 180.338 364.434 176.863C361.215 180.074 358.263 183.541 355.605 187.23C345.409 199.647 334.131 211.153 329.688 227.102C329.596 227.374 329.599 227.67 329.699 227.939C329.798 228.209 329.987 228.436 330.234 228.583C330.481 228.73 330.771 228.787 331.055 228.746C331.34 228.705 331.601 228.567 331.796 228.355C346.093 216.394 352.017 197.255 367.339 186.375C373.719 181.818 366.143 187.23 364.32 189.28C360.846 192.983 357.428 196.799 354.181 200.673C348.317 207.517 343.865 215.454 341.08 224.026C341.019 224.299 341.046 224.584 341.158 224.84C341.27 225.095 341.46 225.309 341.702 225.449C341.943 225.589 342.224 225.648 342.501 225.617C342.779 225.587 343.039 225.469 343.245 225.28C343.871 224.596 344.441 223.856 345.068 223.115C343.439 226.092 342.104 229.221 341.08 232.457C341.019 232.729 341.046 233.014 341.158 233.27C341.27 233.526 341.46 233.739 341.702 233.879C341.943 234.019 342.224 234.078 342.501 234.047C342.779 234.017 343.039 233.899 343.245 233.71C348.941 228.469 353.612 222.602 358.738 216.906C355.491 221.292 352.416 225.678 349.624 230.349C348.827 231.659 350.536 232.798 351.618 231.887C354.953 229.511 357.878 226.605 360.276 223.286C358.226 226.476 356.175 229.381 354.58 232.741C354.419 233.016 354.364 233.339 354.424 233.651C354.484 233.963 354.655 234.243 354.906 234.438C355.157 234.633 355.47 234.731 355.787 234.712C356.105 234.693 356.404 234.56 356.631 234.336C359.991 231.431 365.004 222.944 359.365 232.741C359.247 232.965 359.197 233.219 359.22 233.471C359.243 233.723 359.339 233.963 359.495 234.162C359.652 234.361 359.863 234.51 360.102 234.591C360.342 234.673 360.6 234.683 360.846 234.621C364.093 233.824 361.643 235.589 360.447 238.437C359.82 239.975 362.327 240.659 362.953 239.121C364.099 237.127 364.708 234.87 364.719 232.571C364.781 232.325 364.771 232.067 364.689 231.827C364.608 231.588 364.459 231.377 364.26 231.22C364.061 231.063 363.821 230.968 363.569 230.945C363.317 230.921 363.063 230.972 362.839 231.09C363.83 229.441 364.669 227.706 365.346 225.906C365.858 224.71 364.036 223.856 363.181 224.71C361.7 226.289 360.347 227.984 359.137 229.779C360.789 226.931 362.896 224.083 364.833 221.406C365.516 220.381 364.149 219.014 363.067 219.697C361.777 220.374 360.556 221.175 359.422 222.09L356.915 224.254C360.732 218.558 365.118 213.204 369.048 207.622C369.732 206.596 368.307 205.115 367.282 205.856C359.089 213.013 351.47 220.802 344.498 229.153C346.15 227.444 350.878 218.33 353.783 214.286C357.998 208.59 362.839 202.894 367.396 197.654C367.512 197.534 367.603 197.393 367.665 197.238C367.726 197.083 367.756 196.917 367.754 196.751C367.751 196.584 367.716 196.42 367.649 196.267C367.583 196.114 367.487 195.975 367.368 195.859C367.248 195.743 367.107 195.652 366.952 195.591C366.797 195.529 366.631 195.499 366.465 195.502C366.298 195.505 366.134 195.54 365.981 195.606C365.828 195.672 365.689 195.768 365.573 195.888C360.538 200.423 355.959 205.44 351.903 210.869C349.454 213.887 340.511 229.836 347.688 214.913C354.087 204.094 362.01 194.253 371.212 185.692L371.327 241.741ZM370.358 117.453L370.871 181.591C353.783 189.622 346.776 208.704 334.53 222.204C328.834 228.526 335.84 217.59 337.207 215.027C340.895 208.777 345.208 202.918 350.08 197.54C356.569 190.388 362.528 182.773 367.909 174.755C368.045 174.517 368.098 174.24 368.061 173.968C368.025 173.696 367.9 173.444 367.706 173.25C367.512 173.056 367.259 172.931 366.987 172.894C366.715 172.857 366.439 172.911 366.2 173.047C352.643 180.85 343.928 193.723 335.043 206.255C328.948 214.856 336.865 199.362 336.637 199.932C338.897 195.339 341.647 191.003 344.84 187.002C350.023 179.939 355.662 173.331 360.162 165.756C360.846 164.559 359.023 163.079 358.112 164.218C353.099 170.426 347.802 176.293 342.39 182.16L337.947 187.116C345.661 174.729 354.067 162.786 363.124 151.345C364.036 150.148 362.156 148.895 361.13 149.807C349.738 160.401 340.283 173.331 329.176 184.439C338.013 174.618 345.467 163.637 351.333 151.8C352.472 149.693 353.726 147.528 355.093 145.478C356.46 143.712 357.884 142.003 359.308 140.237C360.732 138.471 358.624 137.161 357.485 138.415C356.346 139.668 355.548 140.864 354.637 142.06L348.941 149.237C343.245 156.3 337.549 163.249 331.283 170.028C333.732 167.237 338.631 155.389 342.334 149.75C345.352 145.136 348.713 140.693 352.131 136.307C352.449 136.009 352.718 135.663 352.928 135.282L356.631 130.44C357.542 129.244 355.605 127.82 354.637 128.845C348.941 135.111 337.549 143.313 334.245 150.718C338.688 140.408 347.517 131.978 353.612 122.636C353.74 122.389 353.785 122.108 353.743 121.833C353.7 121.558 353.571 121.304 353.375 121.108C353.178 120.911 352.924 120.782 352.649 120.739C352.374 120.697 352.093 120.743 351.846 120.871C346.602 124.25 341.648 128.061 337.036 132.263C339.594 128.863 341.934 125.306 344.042 121.611C344.783 120.13 342.561 118.82 341.821 120.301C338.403 126.681 333.732 132.263 329.802 138.301C328.948 139.611 330.77 140.693 331.796 139.895C334.929 137.389 337.891 134.883 340.91 132.32C343.928 129.756 353.27 119.219 346.606 128.56C340.311 136.173 334.885 144.465 330.429 153.281C330.3 153.548 330.266 153.851 330.332 154.14C330.398 154.429 330.56 154.687 330.791 154.872C331.023 155.057 331.31 155.158 331.606 155.159C331.902 155.16 332.19 155.06 332.422 154.876C335.783 151.857 339.03 148.781 342.277 145.648C336.708 153.173 332.293 161.486 329.176 170.312L328.777 118.25L370.358 117.453Z" fill="#101418"/>
<path d="M33.0371 214.799C42.4356 213.83 49.3279 207.28 56.6758 201.755C49.3848 212.236 37.0814 218.843 32.4106 231.203C31.9549 232.4 33.3788 233.026 34.2902 232.627C44.1688 228.257 53.4518 222.649 61.9162 215.938C57.6408 223.745 52.0308 230.743 45.3406 236.615C44.0875 237.697 45.9102 239.52 47.1634 238.437C55.5127 230.95 62.3063 221.892 67.1565 211.78C67.3605 211.515 67.4511 211.181 67.4083 210.85C67.3656 210.519 67.1931 210.218 66.9287 210.014C66.6644 209.81 66.3298 209.72 65.9987 209.762C65.6675 209.805 65.3669 209.977 65.163 210.242C59.1311 215.067 52.8367 219.555 46.3089 223.685C43.066 225.648 39.7194 227.436 36.2839 229.039C36.2839 229.039 41.9799 220.894 41.5812 221.178C48.5873 213.261 57.2454 207.793 61.8022 197.995C62.2579 196.913 61.2326 195.489 60.0365 196.23C56.6105 198.422 53.3198 200.818 50.1823 203.407C47.9608 205.172 29.5625 218.558 39.5876 206.995C46.5368 198.964 55.1379 193.04 59.353 182.958C59.5173 182.719 59.5941 182.431 59.5702 182.143C59.5462 181.854 59.4232 181.583 59.2218 181.375C59.0204 181.167 58.7533 181.035 58.4656 181.002C58.178 180.968 57.8877 181.035 57.6441 181.192C49.782 184.429 42.167 188.237 34.8598 192.584C33.4928 193.438 34.8598 195.66 36.1699 194.749C42.3738 190.991 48.8471 187.698 55.5366 184.894C49.5557 195.546 38.4484 202.552 32.0118 212.805C31.8743 212.993 31.7917 213.215 31.7734 213.447C31.7551 213.679 31.8018 213.912 31.9083 214.119C32.0147 214.326 32.1767 214.499 32.3761 214.619C32.5754 214.739 32.8043 214.801 33.0371 214.799Z" fill="#101418"/>
<path d="M117.453 87.6625C118.285 86.9878 118.946 86.1271 119.384 85.1498C119.822 84.1725 120.024 83.1061 119.974 82.0363C119.924 80.9666 119.624 79.9235 119.097 78.9912C118.57 78.0589 117.831 77.2636 116.94 76.6692C116.257 76.0995 115.459 75.6438 114.719 75.1311C116.39 73.3069 117.532 71.0621 118.023 68.6377C118.023 68.6377 118.023 68.6377 118.023 68.2959C118.023 67.9542 118.023 67.954 118.023 67.7831C118.023 67.7831 118.023 67.7832 118.023 67.4984C117.365 66.5437 116.446 65.7986 115.375 65.3523C114.305 64.906 113.129 64.7773 111.988 64.9815C110.846 65.1858 109.788 65.7143 108.939 66.5041C108.09 67.2939 107.486 68.3114 107.2 69.435C106.346 72.2831 108.852 74.3906 111.301 76.0425C108.414 78.2398 106.396 81.3872 105.605 84.9283C104.637 91.5358 114.035 90.1118 117.453 87.6625ZM115.459 68.5807C115.058 70.521 114.132 72.3139 112.782 73.7641C112.213 73.3654 111.586 73.0237 111.016 72.568C106.744 69.3782 112.782 64.9921 115.289 68.7515L115.459 68.5807ZM113.01 77.0677L114.035 77.6944C116.029 79.1184 117.966 80.8272 117.339 83.3905C116.713 85.9537 108.225 89.3713 107.998 84.5866C107.656 82.1373 110.675 79.2323 112.839 77.0677H113.01Z" fill="#101418"/>
<path d="M126.282 65.5048C124.915 70.8591 122.01 76.1565 124.573 81.6247C127.136 87.093 133.288 85.669 135.965 81.6247C137.567 79.3564 138.564 76.7174 138.863 73.9569C139.162 71.1964 138.753 68.4051 137.674 65.8465C135.282 60.834 130.554 57.5873 127.022 63.5681C126.927 63.7327 126.877 63.9193 126.877 64.1093C126.877 64.2992 126.927 64.4859 127.022 64.6504C126.825 64.6973 126.647 64.8049 126.515 64.9583C126.382 65.1116 126.3 65.3027 126.282 65.5048ZM128.731 66.1883C128.795 65.9648 128.795 65.7282 128.731 65.5048C129.054 65.4109 129.335 65.21 129.529 64.9351C132.775 59.2391 136.307 67.3844 136.763 70.6312C136.975 74.4642 135.757 78.2398 133.345 81.226C133.089 81.5983 132.761 81.9161 132.381 82.1608C132.001 82.4056 131.576 82.5726 131.131 82.6521C130.686 82.7315 130.23 82.7219 129.788 82.6237C129.347 82.5256 128.93 82.3409 128.56 82.0804C127.594 81.3336 126.865 80.3231 126.46 79.1708C126.056 78.0184 125.994 76.7737 126.282 75.5869C126.855 72.3841 127.713 69.2386 128.845 66.1883H128.731Z" fill="#101418"/>
<path d="M160.572 56.5619C162.053 55.8214 160.572 53.657 159.262 54.3405C155.104 56.3341 153.566 63.9099 151.8 67.8402C149.475 74.1043 147.572 80.5173 146.104 87.0359C145.896 87.0635 145.697 87.1386 145.523 87.2553C145.349 87.372 145.204 87.5272 145.099 87.709C144.995 87.8907 144.933 88.094 144.92 88.3033C144.906 88.5125 144.941 88.7221 145.022 88.9157C145.116 89.2092 145.279 89.476 145.497 89.6939C145.715 89.9119 145.981 90.0747 146.275 90.1688C146.441 90.2737 146.63 90.3379 146.826 90.3562C147.022 90.3746 147.219 90.3466 147.402 90.2745C147.585 90.2024 147.749 90.0883 147.879 89.9413C148.01 89.7943 148.104 89.6185 148.155 89.4283C149.403 83.7841 151.02 78.2279 152.996 72.7957C154.135 68.7515 156.243 58.6125 160.572 56.5619Z" fill="#101418"/>
<path d="M147.357 63.3402C148.219 62.9271 148.975 62.3223 149.568 61.572C150.16 60.8216 150.573 59.9458 150.775 59.0113C150.816 58.8188 150.815 58.6196 150.773 58.4274C150.73 58.2352 150.646 58.0546 150.527 57.8977C150.408 57.7409 150.257 57.6115 150.083 57.5186C149.91 57.4257 149.718 57.3714 149.522 57.3594C148.825 57.2602 148.115 57.3898 147.499 57.7288C146.883 58.0677 146.393 58.5977 146.104 59.239C145.658 59.661 145.357 60.2137 145.244 60.8175C145.131 61.4214 145.213 62.0453 145.477 62.5998C145.528 62.79 145.622 62.9656 145.752 63.1126C145.883 63.2596 146.047 63.3739 146.23 63.446C146.413 63.5181 146.61 63.5461 146.806 63.5277C147.002 63.5094 147.191 63.445 147.357 63.3402Z" fill="#101418"/>
<path d="M155.275 85.8398C155.899 84.2862 155.899 82.5516 155.275 80.9981C155.362 80.7785 155.388 80.5397 155.35 80.3066C155.312 80.0735 155.212 79.8548 155.061 79.6739C154.909 79.4929 154.711 79.3565 154.488 79.2787C154.265 79.201 154.025 79.1849 153.794 79.2323C153.311 79.2776 152.845 79.4306 152.429 79.6798C152.013 79.929 151.658 80.2681 151.39 80.6723C151.123 81.0766 150.949 81.5358 150.882 82.016C150.815 82.4963 150.856 82.9852 151.003 83.4474C150.876 83.7296 150.859 84.0487 150.954 84.3431C151.048 84.6375 151.248 84.8865 151.516 85.0422C152.427 86.9789 154.364 88.46 155.275 85.8398Z" fill="#101418"/>
<path d="M256.494 157.439C257.298 158.424 258.317 159.213 259.471 159.746C260.626 160.279 261.887 160.542 263.158 160.515C268.228 160.515 274.266 154.136 269.424 149.579C265.779 146.218 260.083 148.724 256.779 152.37C255.867 145.25 262.931 133.971 269.595 134.598C269.539 134.803 269.539 135.02 269.595 135.225V135.737C269.675 135.969 269.819 136.173 270.01 136.327C270.201 136.481 270.431 136.578 270.674 136.608C270.917 136.637 271.164 136.598 271.386 136.495C271.608 136.391 271.797 136.227 271.93 136.022C272.279 135.413 272.474 134.729 272.5 134.028C272.573 133.697 272.521 133.35 272.352 133.055C272.184 132.76 271.912 132.539 271.589 132.433C261.222 128.503 251.823 145.648 255.013 154.876C254.781 155.301 254.572 155.739 254.387 156.186C254.294 156.458 254.298 156.754 254.397 157.023C254.497 157.293 254.685 157.52 254.932 157.667C255.179 157.814 255.469 157.871 255.754 157.83C256.038 157.788 256.299 157.65 256.494 157.439ZM267.886 151.743C271.532 156.756 263.102 158.749 259.912 157.098C259.114 156.675 258.445 156.046 257.975 155.275C259.855 152.199 265.551 148.496 267.772 151.743H267.886Z" fill="#101418"/>
<path d="M281.899 137.104C277.797 140.864 271.076 152.541 276.203 157.667C281.329 162.793 290.329 158.123 292.208 151.971C292.892 148.878 292.78 145.662 291.884 142.624C290.987 139.586 289.335 136.825 287.082 134.598C282.183 129.699 277.741 134.142 276.089 139.326C276.04 139.487 276.024 139.655 276.04 139.823C276.057 139.99 276.106 140.152 276.186 140.3C276.265 140.448 276.373 140.579 276.503 140.686C276.633 140.792 276.782 140.872 276.943 140.921C277.104 140.969 277.273 140.986 277.44 140.969C277.607 140.952 277.769 140.903 277.917 140.824C278.065 140.744 278.197 140.637 278.303 140.507C278.41 140.377 278.489 140.227 278.538 140.066C279.905 135.794 282.411 133.231 285.943 137.047C288.873 140.518 290.343 144.989 290.044 149.522C289.969 150.624 289.667 151.699 289.157 152.679C288.647 153.659 287.941 154.523 287.082 155.218C284.861 156.927 279.848 158.123 277.854 155.503C274.551 151.117 280.418 141.718 283.551 138.756C284.918 137.674 283.095 135.851 281.899 137.104Z" fill="#101418"/>
<path d="M312.885 133.06C310.058 137.234 307.617 141.657 305.594 146.275C303.835 150.979 301.293 155.35 298.075 159.205C296.879 160.344 298.702 162.167 299.898 161.028C307.132 154.079 309.297 142.459 315.107 134.313C316.075 133.003 313.853 131.693 312.885 133.06Z" fill="#101418"/>
<path d="M302.803 137.902C302.932 137.919 303.063 137.901 303.183 137.851C303.303 137.801 303.407 137.72 303.486 137.617C303.675 137.411 303.794 137.151 303.824 136.873C303.854 136.596 303.795 136.316 303.656 136.074C303.516 135.832 303.302 135.642 303.046 135.53C302.79 135.418 302.506 135.391 302.233 135.452C301.809 135.633 301.408 135.863 301.037 136.136C300.78 136.179 300.542 136.299 300.353 136.478C300.187 136.686 300.088 136.94 300.07 137.205C300.052 137.471 300.115 137.736 300.251 137.965C300.387 138.194 300.59 138.376 300.832 138.487C301.074 138.598 301.344 138.632 301.606 138.585C302.04 138.425 302.444 138.194 302.803 137.902Z" fill="#101418"/>
<path d="M307.701 161.028C308.505 160.471 309.184 159.753 309.695 158.92C310.607 157.553 308.385 156.243 307.474 157.667C307.014 158.249 306.477 158.767 305.879 159.205C304.626 160.23 306.448 162.053 307.701 161.028Z" fill="#101418"/>
<path d="M343.758 84.8713C346.72 77.4664 337.663 71.3148 334.359 79.688C333.999 82.82 334.833 85.9724 336.694 88.5168L335.157 89.6561C332.627 91.8247 330.67 94.583 329.46 97.6874C329.292 97.9833 329.246 98.333 329.331 98.6626C329.416 98.9922 329.626 99.2759 329.916 99.4534C332.195 101.048 333.505 102.586 336.524 102.187C338.097 101.616 339.493 100.643 340.573 99.3632C341.652 98.0838 342.377 96.5436 342.675 94.8964C342.523 92.7538 341.615 90.735 340.112 89.2003C341.566 87.977 342.8 86.5126 343.758 84.8713ZM338.517 97.2318C336.125 100.251 334.416 99.1116 332.251 97.6306C333.587 94.8249 335.533 92.3532 337.948 90.3965C339.599 92.8458 340.91 94.2129 338.517 97.2318ZM341.422 83.6752C340.742 84.7339 339.896 85.6762 338.916 86.4662C338.15 84.8315 337.521 83.1359 337.036 81.3968C336.524 79.6879 337.834 78.7766 339.03 77.8652C341.821 75.7577 341.821 82.1372 341.422 83.6752Z" fill="#101418"/>
<path d="M350.992 80.1436C347.831 84.8786 345.875 90.3148 345.296 95.9786C345.296 102.301 352.074 102.529 356.005 99.4533C358.814 97.1332 361.17 94.3136 362.954 91.137C364.482 88.9389 365.224 86.29 365.061 83.6181C362.84 76.555 355.492 73.0805 350.992 80.1436ZM361.644 81.6815C362.298 82.6697 362.646 83.8287 362.646 85.0138C362.646 86.1989 362.298 87.3577 361.644 88.3459C359.863 92.7994 356.578 96.4878 352.359 98.7697C346.663 101.105 348.144 93.0736 348.998 90.4535C350.116 87.3367 351.508 84.3251 353.156 81.4537C353.564 80.7079 354.167 80.0873 354.9 79.6588C355.634 79.2302 356.471 79.0098 357.32 79.0215C358.17 79.0332 359 79.2765 359.722 79.7252C360.444 80.1738 361.029 80.8108 361.416 81.5676L361.644 81.6815Z" fill="#101418"/>
<path d="M372.751 104.922C376.682 98.6538 380.221 92.1477 383.345 85.4411C386.82 78.8906 390.921 70.0617 398.098 66.9859C399.579 66.3023 398.098 64.0808 396.788 64.7643C390.637 68.4805 385.813 74.0415 383.004 80.6564C378.732 88.2322 375.485 96.4915 370.529 103.441C369.561 104.979 371.782 106.289 372.751 104.922Z" fill="#101418"/>
<path d="M376.567 71.8274C376.411 71.7085 376.229 71.6278 376.036 71.5922C375.842 71.5567 375.643 71.5671 375.455 71.6225C375.266 71.6779 375.094 71.7769 374.951 71.9114C374.807 72.0459 374.698 72.2124 374.631 72.3971C373.954 72.6636 373.321 73.0281 372.751 73.4792C372.52 73.6375 372.348 73.8687 372.264 74.1359C372.18 74.4031 372.188 74.6908 372.286 74.9531C372.384 75.2154 372.568 75.4372 372.807 75.583C373.046 75.7289 373.327 75.7904 373.605 75.7577C373.467 76.6885 373.605 77.6394 374.004 78.4917C374.097 78.8102 374.308 79.0814 374.593 79.2505C374.879 79.4197 375.218 79.4742 375.542 79.4031C378.105 78.8905 381.637 76.9538 380.498 73.7071C380.363 73.3252 380.155 72.9735 379.885 72.6723C379.615 72.371 379.288 72.1262 378.923 71.9516C378.558 71.7769 378.162 71.6759 377.757 71.6547C377.353 71.6334 376.949 71.6922 376.567 71.8274ZM376.169 76.4981C376.155 75.733 376.31 74.9745 376.624 74.2767C376.845 74.1664 377.089 74.109 377.336 74.109C377.583 74.109 377.827 74.1664 378.048 74.2767C378.846 75.302 377.365 76.0424 376.169 76.4981Z" fill="#101418"/>
<path d="M386.364 101.219C386.27 100.971 386.102 100.757 385.883 100.606C385.665 100.455 385.405 100.374 385.14 100.374C384.874 100.374 384.614 100.455 384.396 100.606C384.177 100.757 384.009 100.971 383.915 101.219C383.345 102.529 382.833 103.839 382.206 105.15C382.088 105.374 382.038 105.627 382.061 105.879C382.084 106.131 382.18 106.371 382.337 106.57C382.493 106.769 382.704 106.918 382.944 106.999C383.184 107.081 383.442 107.091 383.687 107.029C384.995 106.939 386.256 106.501 387.337 105.76C388.419 105.019 389.283 104.002 389.839 102.814C389.932 102.645 389.987 102.458 390 102.265C390.012 102.072 389.982 101.879 389.911 101.7C389.841 101.52 389.731 101.358 389.59 101.226C389.45 101.094 389.282 100.994 389.098 100.934C388.183 100.686 387.209 100.788 386.364 101.219Z" fill="#101418"/>
<path d="M187.344 16.5185C186.479 16.4411 185.607 16.5381 184.78 16.8034C184.619 16.8433 184.467 16.9149 184.333 17.0141C184.2 17.1133 184.087 17.2381 184.002 17.3813C183.917 17.5244 183.862 17.6832 183.839 17.848C183.816 18.0128 183.826 18.1805 183.869 18.3413C184.837 24.0374 190.192 23.24 194.008 20.6767C196.49 18.537 198.399 15.8123 199.562 12.749C200.726 9.68578 201.108 6.38072 200.672 3.13292C200.814 3.02681 200.929 2.88921 201.008 2.73103C201.087 2.57284 201.128 2.39839 201.128 2.22153C201.128 2.04467 201.087 1.87022 201.008 1.71203C200.929 1.55385 200.814 1.41625 200.672 1.31014C200.672 1.31014 200.672 1.31014 200.388 1.31014C200.178 1.1627 199.948 1.04751 199.704 0.968388C195.261 -0.626511 187.799 5.58213 190.192 9.9681C191.616 12.5883 194.464 11.9617 196.514 10.4807C196.957 10.1704 197.376 9.82773 197.768 9.45547C197.427 12.2104 196.322 14.815 194.578 16.9743C192.869 18.9679 188.483 21.873 186.888 19.3097C186.888 19.3097 187.173 19.3097 187.344 19.3097C188.995 19.2528 188.939 16.7464 187.344 16.5185ZM193.04 9.05671C191.217 9.05671 194.065 5.41121 194.35 5.12641C195.338 3.98069 196.682 3.19877 198.166 2.90503C198.166 3.18983 198.166 3.47466 198.166 3.81642C197.711 6.09485 195.147 9.39847 192.926 9.05671H193.04Z" fill="#84B898"/>
<path d="M210.698 18.968C212.953 17.7316 214.79 15.8535 215.976 13.5719C217.163 11.2903 217.645 8.70787 217.362 6.15182C216.735 3.41771 213.83 -0.626602 211.267 0.170847C211.047 0.0877588 210.804 0.0877588 210.584 0.170847C208.566 1.47281 206.889 3.23723 205.69 5.31761C204.491 7.39799 203.806 9.73435 203.692 12.1326C202.894 16.1199 205.742 21.759 210.698 18.968ZM206.71 10.139C207.253 7.8398 208.283 5.68385 209.729 3.81641C209.855 3.93057 210.005 4.01359 210.169 4.05891C210.332 4.10423 210.504 4.11059 210.67 4.07733C210.836 4.04408 210.992 3.9722 211.126 3.86752C211.259 3.76284 211.366 3.62827 211.438 3.47466C212.862 0.740552 215.368 7.29093 215.084 8.88582C214.716 10.5731 213.992 12.1624 212.96 13.5474C211.929 14.9325 210.614 16.0813 209.103 16.9173C205.115 18.5122 206.255 11.7908 206.71 10.139Z" fill="#84B898"/>
<path d="M239.235 0.398799L238.039 1.99369C237.949 2.14956 237.901 2.32634 237.901 2.50632C237.901 2.68629 237.949 2.86308 238.039 3.01894C233.181 12.0409 228.992 21.4078 225.507 31.0437C225.303 31.1248 225.128 31.2664 225.005 31.4496C224.883 31.6328 224.82 31.8488 224.824 32.0689V33.0942C224.833 33.4049 224.952 33.7022 225.16 33.9331C225.369 34.1639 225.652 34.3132 225.96 34.3543C226.268 34.3954 226.581 34.3256 226.842 34.1573C227.104 33.9891 227.297 33.7334 227.387 33.4359C231.207 22.4681 235.971 11.8527 241.627 1.70896C241.801 1.39171 241.842 1.01836 241.74 0.671191C241.639 0.324019 241.403 0.0313951 241.086 -0.142334C240.769 -0.316064 240.396 -0.356631 240.048 -0.25515C239.701 -0.153669 239.409 0.0815539 239.235 0.398799Z" fill="#84B898"/>
<path d="M38.8469 157.667C41.0932 156.471 42.897 154.587 43.9939 152.291C45.0908 149.994 45.423 147.407 44.9418 144.908C44.6462 143.755 44.0928 142.685 43.3232 141.777C42.5535 140.869 41.5878 140.148 40.4989 139.668C42.0457 137.535 42.9543 135.006 43.119 132.377C43.119 126.681 37.0242 128.845 33.4357 131.237C33.064 131.293 32.7224 131.474 32.4674 131.75L31.2712 132.946C31.0032 133.322 30.8784 133.781 30.9191 134.241C30.9598 134.701 31.1634 135.131 31.4932 135.454C31.8231 135.777 32.2575 135.972 32.718 136.003C33.1786 136.034 33.6352 135.899 34.0053 135.623C35.0381 134.524 36.2282 133.583 37.5369 132.832C40.7267 131.067 37.8217 136.25 37.5369 136.706C37.2521 137.161 36.5116 138.244 35.9989 138.984C34.7619 139.154 33.6424 139.806 32.8847 140.799C32.127 141.791 31.7927 143.043 31.9548 144.281C31.9659 144.652 32.0835 145.012 32.2935 145.319C32.5034 145.625 32.7969 145.864 33.139 146.008C33.4811 146.152 33.8573 146.195 34.223 146.131C34.5886 146.067 34.9283 145.9 35.2015 145.648C36.2073 144.778 37.1584 143.845 38.0495 142.857C38.8607 143.26 39.5788 143.828 40.1575 144.524C40.7363 145.221 41.163 146.03 41.4102 146.902C42.0937 153.68 35.7141 155.56 30.6446 153.794C31.1003 152.655 30.6446 151.117 29.0497 151.174C27.9313 151.149 26.816 151.303 25.746 151.629C25.4278 151.732 25.1406 151.913 24.9108 152.156C24.681 152.399 24.5159 152.696 24.4309 153.019C24.3458 153.342 24.3434 153.682 24.4239 154.006C24.5044 154.331 24.6652 154.63 24.8916 154.876C26.6774 156.675 28.9585 157.901 31.444 158.398C33.9294 158.895 36.5067 158.641 38.8469 157.667Z" fill="#101418"/>
<path d="M54.7963 157.781C61.8025 156.243 66.4733 146.731 66.4733 140.123C66.4733 133.516 57.5873 125.712 51.3786 131.408C51.2371 131.514 51.1223 131.652 51.0432 131.81C50.9641 131.968 50.923 132.143 50.923 132.32C50.923 132.497 50.9641 132.671 51.0432 132.829C51.1223 132.987 51.2371 133.125 51.3786 133.231C49.6046 136.731 48.3571 140.474 47.6762 144.338C46.7648 149.009 46.9357 159.547 54.7963 157.781ZM50.866 143.142C51.3836 141.202 52.0306 139.299 52.8026 137.446L53.828 135.225C54.4545 134.029 54.8533 134.427 53.828 134.142C54.0691 134.182 54.3163 134.156 54.5441 134.068C54.7718 133.979 54.9717 133.831 55.1229 133.639C55.2741 133.447 55.3711 133.219 55.4038 132.976C55.4366 132.734 55.4038 132.488 55.3089 132.263C61.005 129.813 64.8784 139.269 63.6252 143.997C62.3721 148.724 58.8405 155.389 53.828 155.389C48.8154 155.389 50.0685 145.876 50.752 143.142H50.866Z" fill="#101418"/>
<path d="M83.2764 130.212C83.561 129.387 83.7147 128.522 83.732 127.649C83.7353 127.389 83.6451 127.137 83.4777 126.938C83.3104 126.74 83.0772 126.608 82.8207 126.567H82.4789C82.3433 126.533 82.2022 126.529 82.065 126.556C81.9279 126.582 81.798 126.638 81.6844 126.719C81.5708 126.8 81.4761 126.905 81.4067 127.026C81.3374 127.147 81.2951 127.282 81.2827 127.421C79.6126 134.051 77.2451 140.486 74.2196 146.617C73.65 148.098 73.1373 149.693 72.6817 151.231C72.226 152.769 72.0551 153.395 71.7133 154.477C70.8589 157.268 71.7133 154.99 72.5108 157.439C72.4201 157.115 72.2042 156.839 71.9105 156.673C71.6167 156.508 71.2692 156.466 70.9444 156.556C70.6196 156.647 70.3441 156.863 70.1785 157.157C70.0129 157.45 69.9708 157.798 70.0614 158.123C70.0614 158.806 70.5172 159.262 71.2576 159.49C71.4782 159.547 71.7098 159.545 71.9296 159.485C72.1493 159.425 72.3496 159.309 72.5108 159.148C74.1788 156.112 75.3336 152.821 75.9285 149.408C78.093 143.085 81.6245 137.275 83.0485 130.896C83.2764 130.44 83.2764 130.383 83.2764 130.212Z" fill="#101418"/>
<path d="M71.8843 130.497L71.5425 130.782C70.2894 131.693 71.5425 133.63 72.5678 133.06C73.764 133.63 74.8463 131.693 73.5931 130.782L73.1944 130.497C73.006 130.354 72.776 130.276 72.5394 130.276C72.3028 130.276 72.0726 130.354 71.8843 130.497Z" fill="#101418"/>
<path d="M79.6878 153.11C79.4793 153.473 79.3804 153.889 79.4031 154.306C79.4031 155.673 80.998 155.844 81.6815 154.933C81.8706 154.823 82.0275 154.665 82.1365 154.475C82.2455 154.285 82.3029 154.07 82.3029 153.851C82.3029 153.632 82.2455 153.417 82.1365 153.227C82.0275 153.037 81.8706 152.879 81.6815 152.769C81.5351 152.642 81.3626 152.55 81.1763 152.498C80.99 152.446 80.7946 152.436 80.604 152.469C80.4134 152.502 80.2325 152.576 80.0741 152.687C79.9157 152.798 79.7837 152.942 79.6878 153.11Z" fill="#101418"/>
<path d="M235.704 33.0942C237.088 33.0942 238.21 31.9721 238.21 30.5879C238.21 29.2038 237.088 28.0817 235.704 28.0817C234.319 28.0817 233.197 29.2038 233.197 30.5879C233.197 31.9721 234.319 33.0942 235.704 33.0942Z" fill="#84B898"/>
<path d="M224.506 13.0125C225.89 13.0125 227.013 11.8904 227.013 10.5063C227.013 9.1221 225.89 8 224.506 8C223.122 8 222 9.1221 222 10.5063C222 11.8904 223.122 13.0125 224.506 13.0125Z" fill="#84B898"/>
</g>
<defs>
<clipPath id="clip0_9_252">
<rect width="425.781" height="268" fill="white"/>
</clipPath>
</defs>
</svg>
