<svg width="139" height="139" viewBox="0 0 139 139" fill="none" xmlns="http://www.w3.org/2000/svg">
<circle cx="63" cy="76" r="50.5" stroke="#C2CCC8" stroke-width="25"/>
<path d="M91.5013 34.4221L90.2931 33.471L88.8904 32.841C88.834 32.8156 88.7211 32.7609 88.5 32.6359L88.5 14.0715C90.8211 14.6645 93.1023 15.4232 95.3255 16.3441C101.452 18.8819 107.02 22.6017 111.709 27.2911C116.398 31.9805 120.118 37.5475 122.656 43.6745C123.577 45.8977 124.336 48.1788 124.929 50.5L106.346 50.5C106.305 50.429 106.281 50.3835 106.268 50.3599C104.251 45.5476 100.831 42.1443 99.0941 40.4156C99.0044 40.3263 98.9191 40.2415 98.8388 40.1612C97.124 38.4464 95.4217 37.2049 94.2064 36.3499C93.7618 36.0371 93.4044 35.7896 93.0994 35.5783C92.438 35.1203 92.0233 34.833 91.5013 34.4221Z" stroke="#84B898" stroke-width="25"/>
</svg>
