<svg width="502" height="369" viewBox="0 0 502 369" fill="none" xmlns="http://www.w3.org/2000/svg">
<rect x="1.0752" y="0.5" width="499.425" height="368" stroke="#C2CCC8"/>
<path d="M105.136 304.739V311.949C105.136 312.751 104.888 313.395 104.394 313.881C103.899 314.357 103.246 314.595 102.434 314.595C101.612 314.595 100.954 314.352 100.46 313.867C99.9649 313.372 99.7176 312.7 99.7176 311.851H100.992C101.001 312.327 101.122 312.714 101.356 313.013C101.598 313.311 101.958 313.461 102.434 313.461C102.91 313.461 103.264 313.321 103.498 313.041C103.731 312.751 103.848 312.387 103.848 311.949V304.739H105.136ZM107.169 310.633C107.169 309.849 107.328 309.163 107.645 308.575C107.963 307.977 108.397 307.515 108.947 307.189C109.507 306.862 110.128 306.699 110.809 306.699C111.481 306.699 112.065 306.843 112.559 307.133C113.054 307.422 113.423 307.786 113.665 308.225V306.825H114.953V314.497H113.665V313.069C113.413 313.517 113.035 313.89 112.531 314.189C112.037 314.478 111.458 314.623 110.795 314.623C110.114 314.623 109.498 314.455 108.947 314.119C108.397 313.783 107.963 313.311 107.645 312.705C107.328 312.098 107.169 311.407 107.169 310.633ZM113.665 310.647C113.665 310.068 113.549 309.564 113.315 309.135C113.082 308.705 112.765 308.379 112.363 308.155C111.971 307.921 111.537 307.805 111.061 307.805C110.585 307.805 110.151 307.917 109.759 308.141C109.367 308.365 109.055 308.691 108.821 309.121C108.588 309.55 108.471 310.054 108.471 310.633C108.471 311.221 108.588 311.734 108.821 312.173C109.055 312.602 109.367 312.933 109.759 313.167C110.151 313.391 110.585 313.503 111.061 313.503C111.537 313.503 111.971 313.391 112.363 313.167C112.765 312.933 113.082 312.602 113.315 312.173C113.549 311.734 113.665 311.225 113.665 310.647ZM120.844 306.685C121.778 306.685 122.534 306.969 123.112 307.539C123.691 308.099 123.98 308.911 123.98 309.975V314.497H122.72V310.157C122.72 309.391 122.529 308.808 122.146 308.407C121.764 307.996 121.241 307.791 120.578 307.791C119.906 307.791 119.37 308.001 118.968 308.421C118.576 308.841 118.38 309.452 118.38 310.255V314.497H117.106V306.825H118.38V307.917C118.632 307.525 118.973 307.221 119.402 307.007C119.841 306.792 120.322 306.685 120.844 306.685ZM129.248 305.537V304.375H131.88V314.497H130.592V305.537H129.248ZM134.068 309.331C134.068 307.725 134.33 306.475 134.852 305.579C135.375 304.673 136.29 304.221 137.596 304.221C138.894 304.221 139.804 304.673 140.326 305.579C140.849 306.475 141.11 307.725 141.11 309.331C141.11 310.964 140.849 312.233 140.326 313.139C139.804 314.044 138.894 314.497 137.596 314.497C136.29 314.497 135.375 314.044 134.852 313.139C134.33 312.233 134.068 310.964 134.068 309.331ZM139.85 309.331C139.85 308.519 139.794 307.833 139.682 307.273C139.58 306.703 139.36 306.246 139.024 305.901C138.698 305.555 138.222 305.383 137.596 305.383C136.962 305.383 136.476 305.555 136.14 305.901C135.814 306.246 135.594 306.703 135.482 307.273C135.38 307.833 135.328 308.519 135.328 309.331C135.328 310.171 135.38 310.875 135.482 311.445C135.594 312.014 135.814 312.471 136.14 312.817C136.476 313.162 136.962 313.335 137.596 313.335C138.222 313.335 138.698 313.162 139.024 312.817C139.36 312.471 139.58 312.014 139.682 311.445C139.794 310.875 139.85 310.171 139.85 309.331Z" fill="#101418"/>
<path d="M69.8741 289.076C69.8741 289.524 69.7621 289.953 69.5381 290.364C69.3141 290.765 68.9828 291.101 68.5441 291.372C68.1148 291.643 67.5968 291.797 66.9901 291.834V292.968H66.2341V291.834C65.3848 291.759 64.6941 291.489 64.1621 291.022C63.6301 290.546 63.3594 289.944 63.3501 289.216H64.7081C64.7454 289.608 64.8901 289.949 65.1421 290.238C65.4034 290.527 65.7674 290.709 66.2341 290.784V287.284C65.6088 287.125 65.1048 286.962 64.7221 286.794C64.3394 286.626 64.0128 286.365 63.7421 286.01C63.4714 285.655 63.3361 285.179 63.3361 284.582C63.3361 283.826 63.5974 283.201 64.1201 282.706C64.6521 282.211 65.3568 281.936 66.2341 281.88V280.718H66.9901V281.88C67.7834 281.945 68.4228 282.202 68.9081 282.65C69.3934 283.089 69.6734 283.663 69.7481 284.372H68.3901C68.3434 284.045 68.1988 283.751 67.9561 283.49C67.7134 283.219 67.3914 283.042 66.9901 282.958V286.374C67.6061 286.533 68.1054 286.696 68.4881 286.864C68.8801 287.023 69.2068 287.279 69.4681 287.634C69.7388 287.989 69.8741 288.469 69.8741 289.076ZM64.6381 284.512C64.6381 284.969 64.7734 285.319 65.0441 285.562C65.3148 285.805 65.7114 286.005 66.2341 286.164V282.93C65.7488 282.977 65.3614 283.135 65.0721 283.406C64.7828 283.667 64.6381 284.036 64.6381 284.512ZM66.9901 290.798C67.4941 290.742 67.8861 290.56 68.1661 290.252C68.4554 289.944 68.6001 289.575 68.6001 289.146C68.6001 288.689 68.4601 288.339 68.1801 288.096C67.9001 287.844 67.5034 287.643 66.9901 287.494V290.798ZM72.0731 286.584C72.0731 284.979 72.3344 283.728 72.8571 282.832C73.3797 281.927 74.2944 281.474 75.6011 281.474C76.8984 281.474 77.8084 281.927 78.3311 282.832C78.8537 283.728 79.1151 284.979 79.1151 286.584C79.1151 288.217 78.8537 289.487 78.3311 290.392C77.8084 291.297 76.8984 291.75 75.6011 291.75C74.2944 291.75 73.3797 291.297 72.8571 290.392C72.3344 289.487 72.0731 288.217 72.0731 286.584ZM77.8551 286.584C77.8551 285.772 77.7991 285.086 77.6871 284.526C77.5844 283.957 77.3651 283.499 77.0291 283.154C76.7024 282.809 76.2264 282.636 75.6011 282.636C74.9664 282.636 74.4811 282.809 74.1451 283.154C73.8184 283.499 73.5991 283.957 73.4871 284.526C73.3844 285.086 73.3331 285.772 73.3331 286.584C73.3331 287.424 73.3844 288.129 73.4871 288.698C73.5991 289.267 73.8184 289.725 74.1451 290.07C74.4811 290.415 74.9664 290.588 75.6011 290.588C76.2264 290.588 76.7024 290.415 77.0291 290.07C77.3651 289.725 77.5844 289.267 77.6871 288.698C77.7991 288.129 77.8551 287.424 77.8551 286.584Z" fill="#101418"/>
<path d="M53.4459 229.682C53.4459 230.13 53.3339 230.56 53.1099 230.97C52.8859 231.372 52.5545 231.708 52.1159 231.978C51.6865 232.249 51.1685 232.403 50.5619 232.44V233.574H49.8059V232.44C48.9565 232.366 48.2659 232.095 47.7339 231.628C47.2019 231.152 46.9312 230.55 46.9219 229.822H48.2799C48.3172 230.214 48.4619 230.555 48.7139 230.844C48.9752 231.134 49.3392 231.316 49.8059 231.39V227.89C49.1805 227.732 48.6765 227.568 48.2939 227.4C47.9112 227.232 47.5845 226.971 47.3139 226.616C47.0432 226.262 46.9079 225.786 46.9079 225.188C46.9079 224.432 47.1692 223.807 47.6919 223.312C48.2239 222.818 48.9285 222.542 49.8059 222.486V221.324H50.5619V222.486C51.3552 222.552 51.9945 222.808 52.4799 223.256C52.9652 223.695 53.2452 224.269 53.3199 224.978H51.9619C51.9152 224.652 51.7705 224.358 51.5279 224.096C51.2852 223.826 50.9632 223.648 50.5619 223.564V226.98C51.1779 227.139 51.6772 227.302 52.0599 227.47C52.4519 227.629 52.7785 227.886 53.0399 228.24C53.3105 228.595 53.4459 229.076 53.4459 229.682ZM48.2099 225.118C48.2099 225.576 48.3452 225.926 48.6159 226.168C48.8865 226.411 49.2832 226.612 49.8059 226.77V223.536C49.3205 223.583 48.9332 223.742 48.6439 224.012C48.3545 224.274 48.2099 224.642 48.2099 225.118ZM50.5619 231.404C51.0659 231.348 51.4579 231.166 51.7379 230.858C52.0272 230.55 52.1719 230.182 52.1719 229.752C52.1719 229.295 52.0319 228.945 51.7519 228.702C51.4719 228.45 51.0752 228.25 50.5619 228.1V231.404ZM55.3089 223.396V222.234H57.9409V232.356H56.6529V223.396H55.3089ZM66.5832 223.34H61.6692V226.532C61.8839 226.234 62.2012 225.991 62.6212 225.804C63.0412 225.608 63.4939 225.51 63.9792 225.51C64.7539 225.51 65.3839 225.674 65.8692 226C66.3546 226.318 66.6999 226.733 66.9052 227.246C67.1199 227.75 67.2272 228.287 67.2272 228.856C67.2272 229.528 67.1012 230.13 66.8492 230.662C66.5972 231.194 66.2099 231.614 65.6872 231.922C65.1739 232.23 64.5346 232.384 63.7692 232.384C62.7892 232.384 61.9959 232.132 61.3892 231.628C60.7826 231.124 60.4139 230.452 60.2832 229.612H61.5292C61.6506 230.144 61.9072 230.56 62.2992 230.858C62.6912 231.157 63.1859 231.306 63.7832 231.306C64.5206 231.306 65.0759 231.087 65.4492 230.648C65.8226 230.2 66.0092 229.612 66.0092 228.884C66.0092 228.156 65.8226 227.596 65.4492 227.204C65.0759 226.803 64.5252 226.602 63.7972 226.602C63.3026 226.602 62.8686 226.724 62.4952 226.966C62.1312 227.2 61.8652 227.522 61.6972 227.932H60.4932V222.22H66.5832V223.34ZM68.9202 227.19C68.9202 225.585 69.1816 224.334 69.7042 223.438C70.2269 222.533 71.1416 222.08 72.4482 222.08C73.7456 222.08 74.6556 222.533 75.1782 223.438C75.7009 224.334 75.9622 225.585 75.9622 227.19C75.9622 228.824 75.7009 230.093 75.1782 230.998C74.6556 231.904 73.7456 232.356 72.4482 232.356C71.1416 232.356 70.2269 231.904 69.7042 230.998C69.1816 230.093 68.9202 228.824 68.9202 227.19ZM74.7022 227.19C74.7022 226.378 74.6462 225.692 74.5342 225.132C74.4316 224.563 74.2122 224.106 73.8762 223.76C73.5496 223.415 73.0736 223.242 72.4482 223.242C71.8136 223.242 71.3282 223.415 70.9922 223.76C70.6656 224.106 70.4462 224.563 70.3342 225.132C70.2316 225.692 70.1802 226.378 70.1802 227.19C70.1802 228.03 70.2316 228.735 70.3342 229.304C70.4462 229.874 70.6656 230.331 70.9922 230.676C71.3282 231.022 71.8136 231.194 72.4482 231.194C73.0736 231.194 73.5496 231.022 73.8762 230.676C74.2122 230.331 74.4316 229.874 74.5342 229.304C74.6462 228.735 74.7022 228.03 74.7022 227.19Z" fill="#101418"/>
<path d="M48.3912 171.552C48.3912 172 48.2792 172.429 48.0552 172.84C47.8312 173.241 47.4999 173.577 47.0612 173.848C46.6319 174.119 46.1139 174.273 45.5072 174.31V175.444H44.7512V174.31C43.9019 174.235 43.2112 173.965 42.6792 173.498C42.1472 173.022 41.8765 172.42 41.8672 171.692H43.2252C43.2625 172.084 43.4072 172.425 43.6592 172.714C43.9205 173.003 44.2845 173.185 44.7512 173.26V169.76C44.1259 169.601 43.6219 169.438 43.2392 169.27C42.8565 169.102 42.5299 168.841 42.2592 168.486C41.9885 168.131 41.8532 167.655 41.8532 167.058C41.8532 166.302 42.1145 165.677 42.6372 165.182C43.1692 164.687 43.8739 164.412 44.7512 164.356V163.194H45.5072V164.356C46.3005 164.421 46.9399 164.678 47.4252 165.126C47.9105 165.565 48.1905 166.139 48.2652 166.848H46.9072C46.8605 166.521 46.7159 166.227 46.4732 165.966C46.2305 165.695 45.9085 165.518 45.5072 165.434V168.85C46.1232 169.009 46.6225 169.172 47.0052 169.34C47.3972 169.499 47.7239 169.755 47.9852 170.11C48.2559 170.465 48.3912 170.945 48.3912 171.552ZM43.1552 166.988C43.1552 167.445 43.2905 167.795 43.5612 168.038C43.8319 168.281 44.2285 168.481 44.7512 168.64V165.406C44.2659 165.453 43.8785 165.611 43.5892 165.882C43.2999 166.143 43.1552 166.512 43.1552 166.988ZM45.5072 173.274C46.0112 173.218 46.4032 173.036 46.6832 172.728C46.9725 172.42 47.1172 172.051 47.1172 171.622C47.1172 171.165 46.9772 170.815 46.6972 170.572C46.4172 170.32 46.0205 170.119 45.5072 169.97V173.274ZM50.4362 173.204C51.6215 172.252 52.5502 171.473 53.2222 170.866C53.8942 170.25 54.4588 169.611 54.9162 168.948C55.3828 168.276 55.6162 167.618 55.6162 166.974C55.6162 166.367 55.4668 165.891 55.1682 165.546C54.8788 165.191 54.4075 165.014 53.7542 165.014C53.1195 165.014 52.6248 165.215 52.2702 165.616C51.9248 166.008 51.7382 166.535 51.7102 167.198H50.4782C50.5155 166.153 50.8328 165.345 51.4302 164.776C52.0275 164.207 52.7975 163.922 53.7402 163.922C54.7015 163.922 55.4622 164.188 56.0222 164.72C56.5915 165.252 56.8762 165.985 56.8762 166.918C56.8762 167.693 56.6428 168.449 56.1762 169.186C55.7188 169.914 55.1962 170.558 54.6082 171.118C54.0202 171.669 53.2688 172.313 52.3542 173.05H57.1702V174.114H50.4362V173.204ZM65.0969 165.21H60.1829V168.402C60.3976 168.103 60.7149 167.861 61.1349 167.674C61.5549 167.478 62.0076 167.38 62.4929 167.38C63.2676 167.38 63.8976 167.543 64.3829 167.87C64.8682 168.187 65.2136 168.603 65.4189 169.116C65.6336 169.62 65.7409 170.157 65.7409 170.726C65.7409 171.398 65.6149 172 65.3629 172.532C65.1109 173.064 64.7236 173.484 64.2009 173.792C63.6876 174.1 63.0482 174.254 62.2829 174.254C61.3029 174.254 60.5096 174.002 59.9029 173.498C59.2962 172.994 58.9276 172.322 58.7969 171.482H60.0429C60.1642 172.014 60.4209 172.429 60.8129 172.728C61.2049 173.027 61.6996 173.176 62.2969 173.176C63.0342 173.176 63.5896 172.957 63.9629 172.518C64.3362 172.07 64.5229 171.482 64.5229 170.754C64.5229 170.026 64.3362 169.466 63.9629 169.074C63.5896 168.673 63.0389 168.472 62.3109 168.472C61.8162 168.472 61.3822 168.593 61.0089 168.836C60.6449 169.069 60.3789 169.391 60.2109 169.802H59.0069V164.09H65.0969V165.21ZM67.4339 169.06C67.4339 167.455 67.6953 166.204 68.2179 165.308C68.7406 164.403 69.6553 163.95 70.9619 163.95C72.2593 163.95 73.1693 164.403 73.6919 165.308C74.2146 166.204 74.4759 167.455 74.4759 169.06C74.4759 170.693 74.2146 171.963 73.6919 172.868C73.1693 173.773 72.2593 174.226 70.9619 174.226C69.6553 174.226 68.7406 173.773 68.2179 172.868C67.6953 171.963 67.4339 170.693 67.4339 169.06ZM73.2159 169.06C73.2159 168.248 73.1599 167.562 73.0479 167.002C72.9453 166.433 72.7259 165.975 72.3899 165.63C72.0633 165.285 71.5873 165.112 70.9619 165.112C70.3273 165.112 69.8419 165.285 69.5059 165.63C69.1793 165.975 68.9599 166.433 68.8479 167.002C68.7453 167.562 68.6939 168.248 68.6939 169.06C68.6939 169.9 68.7453 170.605 68.8479 171.174C68.9599 171.743 69.1793 172.201 69.5059 172.546C69.8419 172.891 70.3273 173.064 70.9619 173.064C71.5873 173.064 72.0633 172.891 72.3899 172.546C72.7259 172.201 72.9453 171.743 73.0479 171.174C73.1599 170.605 73.2159 169.9 73.2159 169.06Z" fill="#101418"/>
<path d="M47.1275 114.686C47.1275 115.134 47.0155 115.563 46.7915 115.974C46.5675 116.375 46.2362 116.711 45.7975 116.982C45.3682 117.252 44.8502 117.406 44.2435 117.444V118.578H43.4875V117.444C42.6382 117.369 41.9475 117.098 41.4155 116.632C40.8835 116.156 40.6128 115.554 40.6035 114.826H41.9615C41.9988 115.218 42.1435 115.558 42.3955 115.848C42.6568 116.137 43.0208 116.319 43.4875 116.394V112.894C42.8622 112.735 42.3582 112.572 41.9755 112.404C41.5928 112.236 41.2662 111.974 40.9955 111.62C40.7248 111.265 40.5895 110.789 40.5895 110.192C40.5895 109.436 40.8508 108.81 41.3735 108.316C41.9055 107.821 42.6102 107.546 43.4875 107.49V106.328H44.2435V107.49C45.0368 107.555 45.6762 107.812 46.1615 108.26C46.6468 108.698 46.9268 109.272 47.0015 109.982H45.6435C45.5968 109.655 45.4522 109.361 45.2095 109.1C44.9668 108.829 44.6448 108.652 44.2435 108.568V111.984C44.8595 112.142 45.3588 112.306 45.7415 112.474C46.1335 112.632 46.4602 112.889 46.7215 113.244C46.9922 113.598 47.1275 114.079 47.1275 114.686ZM41.8915 110.122C41.8915 110.579 42.0268 110.929 42.2975 111.172C42.5682 111.414 42.9648 111.615 43.4875 111.774V108.54C43.0022 108.586 42.6148 108.745 42.3255 109.016C42.0362 109.277 41.8915 109.646 41.8915 110.122ZM44.2435 116.408C44.7475 116.352 45.1395 116.17 45.4195 115.862C45.7088 115.554 45.8535 115.185 45.8535 114.756C45.8535 114.298 45.7135 113.948 45.4335 113.706C45.1535 113.454 44.7568 113.253 44.2435 113.104V116.408ZM55.7805 108.344H50.8665V111.536C51.0812 111.237 51.3985 110.994 51.8185 110.808C52.2385 110.612 52.6912 110.514 53.1765 110.514C53.9512 110.514 54.5812 110.677 55.0665 111.004C55.5518 111.321 55.8972 111.736 56.1025 112.25C56.3172 112.754 56.4245 113.29 56.4245 113.86C56.4245 114.532 56.2985 115.134 56.0465 115.666C55.7945 116.198 55.4072 116.618 54.8845 116.926C54.3712 117.234 53.7318 117.388 52.9665 117.388C51.9865 117.388 51.1932 117.136 50.5865 116.632C49.9798 116.128 49.6112 115.456 49.4805 114.616H50.7265C50.8478 115.148 51.1045 115.563 51.4965 115.862C51.8885 116.16 52.3832 116.31 52.9805 116.31C53.7178 116.31 54.2732 116.09 54.6465 115.652C55.0198 115.204 55.2065 114.616 55.2065 113.888C55.2065 113.16 55.0198 112.6 54.6465 112.208C54.2732 111.806 53.7225 111.606 52.9945 111.606C52.4998 111.606 52.0658 111.727 51.6925 111.97C51.3285 112.203 51.0625 112.525 50.8945 112.936H49.6905V107.224H55.7805V108.344ZM64.5715 108.344H59.6575V111.536C59.8722 111.237 60.1895 110.994 60.6095 110.808C61.0295 110.612 61.4822 110.514 61.9675 110.514C62.7422 110.514 63.3722 110.677 63.8575 111.004C64.3428 111.321 64.6882 111.736 64.8935 112.25C65.1082 112.754 65.2155 113.29 65.2155 113.86C65.2155 114.532 65.0895 115.134 64.8375 115.666C64.5855 116.198 64.1982 116.618 63.6755 116.926C63.1622 117.234 62.5228 117.388 61.7575 117.388C60.7775 117.388 59.9842 117.136 59.3775 116.632C58.7708 116.128 58.4022 115.456 58.2715 114.616H59.5175C59.6388 115.148 59.8955 115.563 60.2875 115.862C60.6795 116.16 61.1742 116.31 61.7715 116.31C62.5088 116.31 63.0642 116.09 63.4375 115.652C63.8108 115.204 63.9975 114.616 63.9975 113.888C63.9975 113.16 63.8108 112.6 63.4375 112.208C63.0642 111.806 62.5135 111.606 61.7855 111.606C61.2908 111.606 60.8568 111.727 60.4835 111.97C60.1195 112.203 59.8535 112.525 59.6855 112.936H58.4815V107.224H64.5715V108.344ZM66.9085 112.194C66.9085 110.588 67.1699 109.338 67.6925 108.442C68.2152 107.536 69.1299 107.084 70.4365 107.084C71.7339 107.084 72.6439 107.536 73.1665 108.442C73.6892 109.338 73.9505 110.588 73.9505 112.194C73.9505 113.827 73.6892 115.096 73.1665 116.002C72.6439 116.907 71.7339 117.36 70.4365 117.36C69.1299 117.36 68.2152 116.907 67.6925 116.002C67.1699 115.096 66.9085 113.827 66.9085 112.194ZM72.6905 112.194C72.6905 111.382 72.6345 110.696 72.5225 110.136C72.4199 109.566 72.2005 109.109 71.8645 108.764C71.5379 108.418 71.0619 108.246 70.4365 108.246C69.8019 108.246 69.3165 108.418 68.9805 108.764C68.6539 109.109 68.4345 109.566 68.3225 110.136C68.2199 110.696 68.1685 111.382 68.1685 112.194C68.1685 113.034 68.2199 113.738 68.3225 114.308C68.4345 114.877 68.6539 115.334 68.9805 115.68C69.3165 116.025 69.8019 116.198 70.4365 116.198C71.0619 116.198 71.5379 116.025 71.8645 115.68C72.2005 115.334 72.4199 114.877 72.5225 114.308C72.6345 113.738 72.6905 113.034 72.6905 112.194Z" fill="#101418"/>
<path d="M42.0728 56.5555C42.0728 57.0035 41.9608 57.4328 41.7368 57.8435C41.5128 58.2448 41.1815 58.5808 40.7428 58.8515C40.3135 59.1222 39.7955 59.2762 39.1888 59.3135V60.4475H38.4328V59.3135C37.5835 59.2388 36.8928 58.9682 36.3608 58.5015C35.8288 58.0255 35.5582 57.4235 35.5488 56.6955H36.9068C36.9442 57.0875 37.0888 57.4282 37.3408 57.7175C37.6022 58.0068 37.9662 58.1888 38.4328 58.2635V54.7635C37.8075 54.6048 37.3035 54.4415 36.9208 54.2735C36.5382 54.1055 36.2115 53.8442 35.9408 53.4895C35.6702 53.1348 35.5348 52.6588 35.5348 52.0615C35.5348 51.3055 35.7962 50.6802 36.3188 50.1855C36.8508 49.6908 37.5555 49.4155 38.4328 49.3595V48.1975H39.1888V49.3595C39.9822 49.4248 40.6215 49.6815 41.1068 50.1295C41.5922 50.5682 41.8722 51.1422 41.9468 51.8515H40.5888C40.5422 51.5248 40.3975 51.2308 40.1548 50.9695C39.9122 50.6988 39.5902 50.5215 39.1888 50.4375V53.8535C39.8048 54.0122 40.3042 54.1755 40.6868 54.3435C41.0788 54.5022 41.4055 54.7588 41.6668 55.1135C41.9375 55.4682 42.0728 55.9488 42.0728 56.5555ZM36.8368 51.9915C36.8368 52.4488 36.9722 52.7988 37.2428 53.0415C37.5135 53.2842 37.9102 53.4848 38.4328 53.6435V50.4095C37.9475 50.4562 37.5602 50.6148 37.2708 50.8855C36.9815 51.1468 36.8368 51.5155 36.8368 51.9915ZM39.1888 58.2775C39.6928 58.2215 40.0848 58.0395 40.3648 57.7315C40.6542 57.4235 40.7988 57.0548 40.7988 56.6255C40.7988 56.1682 40.6588 55.8182 40.3788 55.5755C40.0988 55.3235 39.7022 55.1228 39.1888 54.9735V58.2775ZM43.9358 50.2695V49.1075H46.5678V59.2295H45.2798V50.2695H43.9358ZM48.7562 54.0635C48.7562 52.4582 49.0175 51.2075 49.5402 50.3115C50.0629 49.4062 50.9775 48.9535 52.2842 48.9535C53.5815 48.9535 54.4915 49.4062 55.0142 50.3115C55.5369 51.2075 55.7982 52.4582 55.7982 54.0635C55.7982 55.6968 55.5369 56.9662 55.0142 57.8715C54.4915 58.7768 53.5815 59.2295 52.2842 59.2295C50.9775 59.2295 50.0629 58.7768 49.5402 57.8715C49.0175 56.9662 48.7562 55.6968 48.7562 54.0635ZM54.5382 54.0635C54.5382 53.2515 54.4822 52.5655 54.3702 52.0055C54.2675 51.4362 54.0482 50.9788 53.7122 50.6335C53.3855 50.2882 52.9095 50.1155 52.2842 50.1155C51.6495 50.1155 51.1642 50.2882 50.8282 50.6335C50.5015 50.9788 50.2822 51.4362 50.1702 52.0055C50.0675 52.5655 50.0162 53.2515 50.0162 54.0635C50.0162 54.9035 50.0675 55.6082 50.1702 56.1775C50.2822 56.7468 50.5015 57.2042 50.8282 57.5495C51.1642 57.8948 51.6495 58.0675 52.2842 58.0675C52.9095 58.0675 53.3855 57.8948 53.7122 57.5495C54.0482 57.2042 54.2675 56.7468 54.3702 56.1775C54.4822 55.6082 54.5382 54.9035 54.5382 54.0635ZM64.0012 50.2135H59.0872V53.4055C59.3019 53.1068 59.6192 52.8642 60.0392 52.6775C60.4592 52.4815 60.9119 52.3835 61.3972 52.3835C62.1719 52.3835 62.8019 52.5468 63.2872 52.8735C63.7725 53.1908 64.1179 53.6062 64.3232 54.1195C64.5379 54.6235 64.6452 55.1602 64.6452 55.7295C64.6452 56.4015 64.5192 57.0035 64.2672 57.5355C64.0152 58.0675 63.6279 58.4875 63.1052 58.7955C62.5919 59.1035 61.9525 59.2575 61.1872 59.2575C60.2072 59.2575 59.4139 59.0055 58.8072 58.5015C58.2005 57.9975 57.8319 57.3255 57.7012 56.4855H58.9472C59.0685 57.0175 59.3252 57.4328 59.7172 57.7315C60.1092 58.0302 60.6039 58.1795 61.2012 58.1795C61.9385 58.1795 62.4939 57.9602 62.8672 57.5215C63.2405 57.0735 63.4272 56.4855 63.4272 55.7575C63.4272 55.0295 63.2405 54.4695 62.8672 54.0775C62.4939 53.6762 61.9432 53.4755 61.2152 53.4755C60.7205 53.4755 60.2865 53.5968 59.9132 53.8395C59.5492 54.0728 59.2832 54.3948 59.1152 54.8055H57.9112V49.0935H64.0012V50.2135ZM66.3382 54.0635C66.3382 52.4582 66.5995 51.2075 67.1222 50.3115C67.6449 49.4062 68.5595 48.9535 69.8662 48.9535C71.1635 48.9535 72.0735 49.4062 72.5962 50.3115C73.1189 51.2075 73.3802 52.4582 73.3802 54.0635C73.3802 55.6968 73.1189 56.9662 72.5962 57.8715C72.0735 58.7768 71.1635 59.2295 69.8662 59.2295C68.5595 59.2295 67.6449 58.7768 67.1222 57.8715C66.5995 56.9662 66.3382 55.6968 66.3382 54.0635ZM72.1202 54.0635C72.1202 53.2515 72.0642 52.5655 71.9522 52.0055C71.8495 51.4362 71.6302 50.9788 71.2942 50.6335C70.9675 50.2882 70.4915 50.1155 69.8662 50.1155C69.2315 50.1155 68.7462 50.2882 68.4102 50.6335C68.0835 50.9788 67.8642 51.4362 67.7522 52.0055C67.6495 52.5655 67.5982 53.2515 67.5982 54.0635C67.5982 54.9035 67.6495 55.6082 67.7522 56.1775C67.8642 56.7468 68.0835 57.2042 68.4102 57.5495C68.7462 57.8948 69.2315 58.0675 69.8662 58.0675C70.4915 58.0675 70.9675 57.8948 71.2942 57.5495C71.6302 57.2042 71.8495 56.7468 71.9522 56.1775C72.0642 55.6082 72.1202 54.9035 72.1202 54.0635Z" fill="#101418"/>
<path d="M187.276 304.739V311.949C187.276 312.751 187.029 313.395 186.534 313.881C186.04 314.357 185.386 314.595 184.574 314.595C183.753 314.595 183.095 314.352 182.6 313.867C182.106 313.372 181.858 312.7 181.858 311.851H183.132C183.142 312.327 183.263 312.714 183.496 313.013C183.739 313.311 184.098 313.461 184.574 313.461C185.05 313.461 185.405 313.321 185.638 313.041C185.872 312.751 185.988 312.387 185.988 311.949V304.739H187.276ZM189.31 310.633C189.31 309.849 189.469 309.163 189.786 308.575C190.103 307.977 190.537 307.515 191.088 307.189C191.648 306.862 192.269 306.699 192.95 306.699C193.622 306.699 194.205 306.843 194.7 307.133C195.195 307.422 195.563 307.786 195.806 308.225V306.825H197.094V314.497H195.806V313.069C195.554 313.517 195.176 313.89 194.672 314.189C194.177 314.478 193.599 314.623 192.936 314.623C192.255 314.623 191.639 314.455 191.088 314.119C190.537 313.783 190.103 313.311 189.786 312.705C189.469 312.098 189.31 311.407 189.31 310.633ZM195.806 310.647C195.806 310.068 195.689 309.564 195.456 309.135C195.223 308.705 194.905 308.379 194.504 308.155C194.112 307.921 193.678 307.805 193.202 307.805C192.726 307.805 192.292 307.917 191.9 308.141C191.508 308.365 191.195 308.691 190.962 309.121C190.729 309.55 190.612 310.054 190.612 310.633C190.612 311.221 190.729 311.734 190.962 312.173C191.195 312.602 191.508 312.933 191.9 313.167C192.292 313.391 192.726 313.503 193.202 313.503C193.678 313.503 194.112 313.391 194.504 313.167C194.905 312.933 195.223 312.602 195.456 312.173C195.689 311.734 195.806 311.225 195.806 310.647ZM202.985 306.685C203.918 306.685 204.674 306.969 205.253 307.539C205.832 308.099 206.121 308.911 206.121 309.975V314.497H204.861V310.157C204.861 309.391 204.67 308.808 204.287 308.407C203.904 307.996 203.382 307.791 202.719 307.791C202.047 307.791 201.51 308.001 201.109 308.421C200.717 308.841 200.521 309.452 200.521 310.255V314.497H199.247V306.825H200.521V307.917C200.773 307.525 201.114 307.221 201.543 307.007C201.982 306.792 202.462 306.685 202.985 306.685ZM211.388 305.537V304.375H214.02V314.497H212.732V305.537H211.388ZM215.873 305.537V304.375H218.505V314.497H217.217V305.537H215.873Z" fill="#101418"/>
<path d="M269.416 304.739V311.949C269.416 312.751 269.169 313.395 268.674 313.881C268.18 314.357 267.526 314.595 266.714 314.595C265.893 314.595 265.235 314.352 264.74 313.867C264.246 313.372 263.998 312.7 263.998 311.851H265.272C265.282 312.327 265.403 312.714 265.636 313.013C265.879 313.311 266.238 313.461 266.714 313.461C267.19 313.461 267.545 313.321 267.778 313.041C268.012 312.751 268.128 312.387 268.128 311.949V304.739H269.416ZM271.45 310.633C271.45 309.849 271.609 309.163 271.926 308.575C272.243 307.977 272.677 307.515 273.228 307.189C273.788 306.862 274.409 306.699 275.09 306.699C275.762 306.699 276.345 306.843 276.84 307.133C277.335 307.422 277.703 307.786 277.946 308.225V306.825H279.234V314.497H277.946V313.069C277.694 313.517 277.316 313.89 276.812 314.189C276.317 314.478 275.739 314.623 275.076 314.623C274.395 314.623 273.779 314.455 273.228 314.119C272.677 313.783 272.243 313.311 271.926 312.705C271.609 312.098 271.45 311.407 271.45 310.633ZM277.946 310.647C277.946 310.068 277.829 309.564 277.596 309.135C277.363 308.705 277.045 308.379 276.644 308.155C276.252 307.921 275.818 307.805 275.342 307.805C274.866 307.805 274.432 307.917 274.04 308.141C273.648 308.365 273.335 308.691 273.102 309.121C272.869 309.55 272.752 310.054 272.752 310.633C272.752 311.221 272.869 311.734 273.102 312.173C273.335 312.602 273.648 312.933 274.04 313.167C274.432 313.391 274.866 313.503 275.342 313.503C275.818 313.503 276.252 313.391 276.644 313.167C277.045 312.933 277.363 312.602 277.596 312.173C277.829 311.734 277.946 311.225 277.946 310.647ZM285.125 306.685C286.058 306.685 286.814 306.969 287.393 307.539C287.972 308.099 288.261 308.911 288.261 309.975V314.497H287.001V310.157C287.001 309.391 286.81 308.808 286.427 308.407C286.044 307.996 285.522 307.791 284.859 307.791C284.187 307.791 283.65 308.001 283.249 308.421C282.857 308.841 282.661 309.452 282.661 310.255V314.497H281.387V306.825H282.661V307.917C282.913 307.525 283.254 307.221 283.683 307.007C284.122 306.792 284.602 306.685 285.125 306.685ZM293.529 305.537V304.375H296.161V314.497H294.873V305.537H293.529ZM298.195 313.475C299.38 312.523 300.309 311.743 300.981 311.137C301.653 310.521 302.218 309.881 302.675 309.219C303.142 308.547 303.375 307.889 303.375 307.245C303.375 306.638 303.226 306.162 302.927 305.817C302.638 305.462 302.166 305.285 301.513 305.285C300.878 305.285 300.384 305.485 300.029 305.887C299.684 306.279 299.497 306.806 299.469 307.469H298.237C298.274 306.423 298.592 305.616 299.189 305.047C299.786 304.477 300.556 304.193 301.499 304.193C302.46 304.193 303.221 304.459 303.781 304.991C304.35 305.523 304.635 306.255 304.635 307.189C304.635 307.963 304.402 308.719 303.935 309.457C303.478 310.185 302.955 310.829 302.367 311.389C301.779 311.939 301.028 312.583 300.113 313.321H304.929V314.385H298.195V313.475Z" fill="#101418"/>
<path d="M351.557 304.739V311.949C351.557 312.751 351.31 313.395 350.815 313.881C350.32 314.357 349.667 314.595 348.855 314.595C348.034 314.595 347.376 314.352 346.881 313.867C346.386 313.372 346.139 312.7 346.139 311.851H347.413C347.422 312.327 347.544 312.714 347.777 313.013C348.02 313.311 348.379 313.461 348.855 313.461C349.331 313.461 349.686 313.321 349.919 313.041C350.152 312.751 350.269 312.387 350.269 311.949V304.739H351.557ZM353.591 310.633C353.591 309.849 353.749 309.163 354.067 308.575C354.384 307.977 354.818 307.515 355.369 307.189C355.929 306.862 356.549 306.699 357.231 306.699C357.903 306.699 358.486 306.843 358.981 307.133C359.475 307.422 359.844 307.786 360.087 308.225V306.825H361.375V314.497H360.087V313.069C359.835 313.517 359.457 313.89 358.953 314.189C358.458 314.478 357.879 314.623 357.217 314.623C356.535 314.623 355.919 314.455 355.369 314.119C354.818 313.783 354.384 313.311 354.067 312.705C353.749 312.098 353.591 311.407 353.591 310.633ZM360.087 310.647C360.087 310.068 359.97 309.564 359.737 309.135C359.503 308.705 359.186 308.379 358.785 308.155C358.393 307.921 357.959 307.805 357.483 307.805C357.007 307.805 356.573 307.917 356.181 308.141C355.789 308.365 355.476 308.691 355.243 309.121C355.009 309.55 354.893 310.054 354.893 310.633C354.893 311.221 355.009 311.734 355.243 312.173C355.476 312.602 355.789 312.933 356.181 313.167C356.573 313.391 357.007 313.503 357.483 313.503C357.959 313.503 358.393 313.391 358.785 313.167C359.186 312.933 359.503 312.602 359.737 312.173C359.97 311.734 360.087 311.225 360.087 310.647ZM367.266 306.685C368.199 306.685 368.955 306.969 369.534 307.539C370.112 308.099 370.402 308.911 370.402 309.975V314.497H369.142V310.157C369.142 309.391 368.95 308.808 368.568 308.407C368.185 307.996 367.662 307.791 367 307.791C366.328 307.791 365.791 308.001 365.39 308.421C364.998 308.841 364.802 309.452 364.802 310.255V314.497H363.528V306.825H364.802V307.917C365.054 307.525 365.394 307.221 365.824 307.007C366.262 306.792 366.743 306.685 367.266 306.685ZM375.669 305.537V304.375H378.301V314.497H377.013V305.537H375.669ZM380.462 306.923C380.527 306.064 380.858 305.392 381.456 304.907C382.053 304.421 382.828 304.179 383.78 304.179C384.414 304.179 384.96 304.295 385.418 304.529C385.884 304.753 386.234 305.061 386.468 305.453C386.71 305.845 386.832 306.288 386.832 306.783C386.832 307.361 386.664 307.861 386.328 308.281C386.001 308.701 385.572 308.971 385.04 309.093V309.163C385.646 309.312 386.127 309.606 386.482 310.045C386.836 310.483 387.014 311.057 387.014 311.767C387.014 312.299 386.892 312.779 386.65 313.209C386.407 313.629 386.043 313.96 385.558 314.203C385.072 314.445 384.489 314.567 383.808 314.567C382.818 314.567 382.006 314.31 381.372 313.797C380.737 313.274 380.382 312.537 380.308 311.585H381.54C381.605 312.145 381.834 312.602 382.226 312.957C382.618 313.311 383.14 313.489 383.794 313.489C384.447 313.489 384.942 313.321 385.278 312.985C385.623 312.639 385.796 312.196 385.796 311.655C385.796 310.955 385.562 310.451 385.096 310.143C384.629 309.835 383.924 309.681 382.982 309.681H382.66V308.617H382.996C383.854 308.607 384.503 308.467 384.942 308.197C385.38 307.917 385.6 307.487 385.6 306.909C385.6 306.414 385.436 306.017 385.11 305.719C384.792 305.42 384.335 305.271 383.738 305.271C383.159 305.271 382.692 305.42 382.338 305.719C381.983 306.017 381.773 306.419 381.708 306.923H380.462Z" fill="#101418"/>
<path d="M433.697 304.739V311.949C433.697 312.751 433.45 313.395 432.955 313.881C432.46 314.357 431.807 314.595 430.995 314.595C430.174 314.595 429.516 314.352 429.021 313.867C428.526 313.372 428.279 312.7 428.279 311.851H429.553C429.562 312.327 429.684 312.714 429.917 313.013C430.16 313.311 430.519 313.461 430.995 313.461C431.471 313.461 431.826 313.321 432.059 313.041C432.292 312.751 432.409 312.387 432.409 311.949V304.739H433.697ZM435.731 310.633C435.731 309.849 435.89 309.163 436.207 308.575C436.524 307.977 436.958 307.515 437.509 307.189C438.069 306.862 438.69 306.699 439.371 306.699C440.043 306.699 440.626 306.843 441.121 307.133C441.616 307.422 441.984 307.786 442.227 308.225V306.825H443.515V314.497H442.227V313.069C441.975 313.517 441.597 313.89 441.093 314.189C440.598 314.478 440.02 314.623 439.357 314.623C438.676 314.623 438.06 314.455 437.509 314.119C436.958 313.783 436.524 313.311 436.207 312.705C435.89 312.098 435.731 311.407 435.731 310.633ZM442.227 310.647C442.227 310.068 442.11 309.564 441.877 309.135C441.644 308.705 441.326 308.379 440.925 308.155C440.533 307.921 440.099 307.805 439.623 307.805C439.147 307.805 438.713 307.917 438.321 308.141C437.929 308.365 437.616 308.691 437.383 309.121C437.15 309.55 437.033 310.054 437.033 310.633C437.033 311.221 437.15 311.734 437.383 312.173C437.616 312.602 437.929 312.933 438.321 313.167C438.713 313.391 439.147 313.503 439.623 313.503C440.099 313.503 440.533 313.391 440.925 313.167C441.326 312.933 441.644 312.602 441.877 312.173C442.11 311.734 442.227 311.225 442.227 310.647ZM449.406 306.685C450.339 306.685 451.095 306.969 451.674 307.539C452.253 308.099 452.542 308.911 452.542 309.975V314.497H451.282V310.157C451.282 309.391 451.091 308.808 450.708 308.407C450.325 307.996 449.803 307.791 449.14 307.791C448.468 307.791 447.931 308.001 447.53 308.421C447.138 308.841 446.942 309.452 446.942 310.255V314.497H445.668V306.825H446.942V307.917C447.194 307.525 447.535 307.221 447.964 307.007C448.403 306.792 448.883 306.685 449.406 306.685ZM457.809 305.537V304.375H460.441V314.497H459.153V305.537H457.809ZM462.322 312.243V311.277L467.236 304.473H468.762V311.137H470.162V312.243H468.762V314.497H467.502V312.243H462.322ZM467.558 305.803L463.792 311.137H467.558V305.803Z" fill="#101418"/>
<path d="M99.7754 268.223L143.253 245.992C147.221 243.964 151.752 243.318 156.129 244.158L189.19 250.505C195.705 251.756 202.417 249.695 207.106 245.003L221.48 230.623C223.615 228.487 226.205 226.862 229.058 225.871L238.641 222.539C245.546 220.139 253.21 221.697 258.63 226.603L283.301 248.935C292.211 257 306.17 255.442 313.083 245.611L342.502 203.772C347.213 197.073 355.531 193.922 363.497 195.82L387.355 201.503C395.315 203.399 403.627 200.256 408.339 193.567L445.136 141.339C448.69 136.296 454.372 133.175 460.534 132.881L501 130.953" stroke="#CE2A96"/>
<path d="M101.039 284.019L138.509 257.753C145.094 253.137 153.804 252.914 160.617 257.189L181.401 270.228C191.238 276.398 204.244 272.924 209.692 262.67L223.803 236.111C224.415 234.959 224.913 233.75 225.29 232.501L236.624 194.917C241.662 178.21 264.182 175.517 273.018 190.563L281.186 204.471C289.267 218.232 309.419 217.45 316.41 203.105L337.029 160.798C343.316 147.898 360.741 145.622 370.131 156.474L387.893 177.001C394.945 185.15 407.186 186.247 415.574 179.481L446.043 154.905C449.123 152.42 452.872 150.905 456.814 150.552L501 146.592" stroke="#A7ABFF"/>
</svg>
